<?xml version="1.0" encoding="utf-8"?>
<!-- Generator: Adobe Illustrator 19.0.1, SVG Export Plug-In . SVG Version: 6.00 Build 0)  -->
<svg version="1.1" id="Слой_1" xmlns="http://www.w3.org/2000/svg" xmlns:xlink="http://www.w3.org/1999/xlink" x="0px" y="0px"
	 viewBox="0 0 482 482" style="enable-background:new 0 0 482 482;" xml:space="preserve">
<style type="text/css">
	.st0{fill:#F7DDC4;}
	.st1{fill:#FFFFFF;}
</style>
<g>
	<path class="st0" d="M241,482c-64.4,0-124.9-25.1-170.4-70.6C25.1,365.9,0,305.4,0,241c0-64.4,25.1-124.9,70.6-170.4
		C116.1,25.1,176.6,0,241,0c64.4,0,124.9,25.1,170.4,70.6c45.5,45.5,70.6,106,70.6,170.4c0,64.4-25.1,124.9-70.6,170.4
		C365.9,456.9,305.4,482,241,482z M241,10C113.6,10,10,113.6,10,241s103.6,231,231,231s231-103.6,231-231S368.4,10,241,10z"/>
</g>
<g>
	<g>
		<rect x="87" y="333.5" class="st1" width="308" height="3"/>
	</g>
	<g>
		<path class="st1" d="M168.9,284.7c-4.7,2.3-14.1,4.7-26.1,4.7c-27.8,0-48.7-17.6-48.7-49.9c0-30.9,20.9-51.8,51.5-51.8
			c12.3,0,20.1,2.6,23.4,4.4l-3.1,10.4c-4.8-2.3-11.7-4.1-19.9-4.1c-23.1,0-38.5,14.8-38.5,40.7c0,24.2,13.9,39.7,37.9,39.7
			c7.8,0,15.7-1.6,20.8-4.1L168.9,284.7z"/>
		<path class="st1" d="M183.1,272.4c5.7,3.5,14.1,6.4,22.8,6.4c13,0,20.6-6.9,20.6-16.8c0-9.2-5.3-14.5-18.6-19.6
			c-16.1-5.7-26.1-14.1-26.1-28c0-15.4,12.7-26.8,31.9-26.8c10.1,0,17.4,2.3,21.8,4.8l-3.5,10.4c-3.2-1.8-9.8-4.7-18.7-4.7
			c-13.5,0-18.6,8.1-18.6,14.8c0,9.2,6,13.8,19.6,19c16.7,6.4,25.2,14.5,25.2,29c0,15.2-11.3,28.4-34.5,28.4
			c-9.5,0-19.9-2.8-25.2-6.3L183.1,272.4z"/>
		<path class="st1" d="M255.3,272.4c5.7,3.5,14.1,6.4,22.8,6.4c13,0,20.6-6.9,20.6-16.8c0-9.2-5.3-14.5-18.6-19.6
			c-16.1-5.7-26.1-14.1-26.1-28c0-15.4,12.7-26.8,31.9-26.8c10.1,0,17.4,2.3,21.8,4.8l-3.5,10.4c-3.2-1.8-9.8-4.7-18.7-4.7
			c-13.5,0-18.6,8.1-18.6,14.8c0,9.2,6,13.8,19.6,19c16.7,6.4,25.2,14.5,25.2,29c0,15.2-11.3,28.4-34.5,28.4
			c-9.5,0-19.9-2.8-25.2-6.3L255.3,272.4z"/>
		<path class="st1" d="M327.7,273.2c3.7,2.3,12.1,6,21.1,6c16.5,0,21.7-10.5,21.5-18.4c-0.1-13.3-12.1-19-24.6-19h-7.2V232h7.2
			c9.4,0,21.2-4.8,21.2-16.1c0-7.6-4.8-14.3-16.7-14.3c-7.6,0-14.9,3.4-19,6.3l-3.4-9.4c5-3.7,14.6-7.3,24.9-7.3
			c18.7,0,27.2,11.1,27.2,22.7c0,9.8-5.9,18.2-17.6,22.4v0.3c11.7,2.3,21.2,11.1,21.2,24.4c0,15.2-11.9,28.5-34.7,28.5
			c-10.7,0-20.1-3.4-24.7-6.4L327.7,273.2z"/>
	</g>
</g>
</svg>
