<?xml version="1.0" encoding="utf-8"?>
<!-- Generator: Adobe Illustrator 19.0.1, SVG Export Plug-In . SVG Version: 6.00 Build 0)  -->
<svg version="1.1" id="Слой_1" xmlns="http://www.w3.org/2000/svg" xmlns:xlink="http://www.w3.org/1999/xlink" x="0px" y="0px"
	 viewBox="-64 156 482 482" style="enable-background:new -64 156 482 482;" xml:space="preserve">
<style type="text/css">
	.st0{fill:#FFFFFF;}
	.st1{fill:#F7DDC4;}
</style>
<g>
	<g>
		<rect x="23" y="489.5" class="st0" width="308" height="3"/>
	</g>
	<g>
		<path class="st0" d="M104.9,440.7c-4.7,2.3-14.1,4.7-26.1,4.7c-27.8,0-48.7-17.6-48.7-49.9c0-30.9,20.9-51.8,51.5-51.8
			c12.3,0,20.1,2.6,23.4,4.4l-3.1,10.4c-4.8-2.3-11.7-4.1-19.9-4.1c-23.1,0-38.5,14.8-38.5,40.7c0,24.2,13.9,39.7,37.9,39.7
			c7.8,0,15.7-1.6,20.8-4.1L104.9,440.7z"/>
		<path class="st0" d="M119.1,428.4c5.7,3.5,14.1,6.4,22.8,6.4c13,0,20.6-6.9,20.6-16.8c0-9.2-5.3-14.5-18.6-19.6
			c-16.1-5.7-26.1-14.1-26.1-28c0-15.4,12.7-26.8,31.9-26.8c10.1,0,17.4,2.3,21.8,4.8l-3.5,10.4c-3.2-1.8-9.8-4.7-18.7-4.7
			c-13.5,0-18.6,8.1-18.6,14.8c0,9.2,6,13.8,19.6,19c16.7,6.4,25.2,14.5,25.2,29c0,15.2-11.3,28.4-34.5,28.4
			c-9.5,0-19.9-2.8-25.2-6.3L119.1,428.4z"/>
		<path class="st0" d="M191.3,428.4c5.7,3.5,14.1,6.4,22.8,6.4c13,0,20.6-6.9,20.6-16.8c0-9.2-5.3-14.5-18.6-19.6
			c-16.1-5.7-26.1-14.1-26.1-28c0-15.4,12.7-26.8,31.9-26.8c10.1,0,17.4,2.3,21.8,4.8l-3.5,10.4c-3.2-1.8-9.8-4.7-18.7-4.7
			c-13.5,0-18.6,8.1-18.6,14.8c0,9.2,6,13.8,19.6,19c16.7,6.4,25.2,14.5,25.2,29c0,15.2-11.3,28.4-34.5,28.4
			c-9.5,0-19.9-2.8-25.2-6.3L191.3,428.4z"/>
		<path class="st0" d="M263.7,429.2c3.7,2.3,12.1,6,21.1,6c16.5,0,21.7-10.5,21.5-18.4c-0.1-13.3-12.1-19-24.6-19h-7.2V388h7.2
			c9.4,0,21.2-4.8,21.2-16.1c0-7.6-4.8-14.3-16.7-14.3c-7.6,0-14.9,3.4-19,6.3l-3.4-9.4c5-3.7,14.6-7.3,24.9-7.3
			c18.7,0,27.2,11.1,27.2,22.7c0,9.8-5.9,18.2-17.6,22.4v0.3c11.7,2.3,21.2,11.1,21.2,24.4c0,15.2-11.9,28.5-34.7,28.5
			c-10.7,0-20.1-3.4-24.7-6.4L263.7,429.2z"/>
	</g>
</g>
<path class="st1" d="M177,162c31.7,0,62.5,6.2,91.5,18.5c28,11.8,53.1,28.8,74.7,50.4s38.5,46.7,50.4,74.7
	c12.3,29,18.5,59.7,18.5,91.5s-6.2,62.5-18.5,91.5c-11.8,28-28.8,53.1-50.4,74.7c-21.6,21.6-46.7,38.5-74.7,50.4
	c-29,12.3-59.7,18.5-91.5,18.5s-62.5-6.2-91.5-18.5c-28-11.8-53.1-28.8-74.7-50.4c-21.6-21.6-38.5-46.7-50.4-74.7
	C-51.8,459.5-58,428.7-58,397s6.2-62.5,18.5-91.5c11.8-28,28.8-53.1,50.4-74.7s46.7-38.5,74.7-50.4C114.5,168.2,145.3,162,177,162
	 M177,156C43.9,156-64,263.9-64,397S43.9,638,177,638s241-107.9,241-241S310.1,156,177,156L177,156z"/>
</svg>
