<?xml version="1.0" encoding="utf-8"?>
<!-- Generator: Adobe Illustrator 19.0.1, SVG Export Plug-In . SVG Version: 6.00 Build 0)  -->
<svg version="1.1" id="Слой_1" xmlns="http://www.w3.org/2000/svg" xmlns:xlink="http://www.w3.org/1999/xlink" x="0px" y="0px"
	 viewBox="0 0 214 214" style="enable-background:new 0 0 214 214;" xml:space="preserve">
<style type="text/css">
	.st0{fill:#FFFFFF;}
</style>
<g>
	<path class="st0" d="M107,0C47.9,0,0,47.9,0,107s47.9,107,107,107s107-47.9,107-107S166.1,0,107,0z M99.6,78.7H74.2v20.6h23.5v6.6
		H74.2V134h-8V72h33.4V78.7z M131.3,135c-6.4,0-11.6-2.5-14.9-8.4h-0.3l-0.4,7.4h-7c0.2-3,0.4-7.5,0.4-11.5V68.7h8v28h0.2
		c2.9-5,8-8.2,15.2-8.2c11,0,18.9,9.2,18.8,22.7C151.3,127.1,141.3,135,131.3,135z"/>
	<path class="st0" d="M130,94.9c-5.5,0-10.7,3.8-12.3,9.9c-0.2,0.9-0.5,2-0.5,3.3v8c0,1,0.2,2,0.4,2.9c1.6,5.6,6.3,9.5,12.1,9.5
		c8.5,0,13.5-6.9,13.5-17.1C143.2,102.5,138.6,94.9,130,94.9z"/>
</g>
</svg>
