<?xml version="1.0" encoding="utf-8"?>
<!-- Generator: Adobe Illustrator 19.0.1, SVG Export Plug-In . SVG Version: 6.00 Build 0)  -->
<svg version="1.1" id="Слой_1" xmlns="http://www.w3.org/2000/svg" xmlns:xlink="http://www.w3.org/1999/xlink" x="0px" y="0px"
	 viewBox="0 0 214 214" style="enable-background:new 0 0 214 214;" xml:space="preserve">
<style type="text/css">
	.st0{fill:#FFFFFF;}
</style>
<path class="st0" d="M107,0C47.9,0,0,47.9,0,107s47.9,107,107,107s107-47.9,107-107S166.1,0,107,0z M104.1,131.2
	c-3.6,1.3-10.7,3.4-19,3.4c-9.4,0-17.1-2.4-23.2-8.2c-5.3-5.2-8.6-13.4-8.6-23.1c0.1-18.5,12.8-32,33.6-32c7.2,0,12.8,1.6,15.5,2.9
	l-1.9,6.5c-3.3-1.5-7.5-2.7-13.7-2.7c-15.1,0-24.9,9.4-24.9,24.9c0,15.7,9.5,25,23.9,25c5.2,0,8.8-0.7,10.7-1.7v-18.5H83.6v-6.4
	h20.4V131.2z M160.4,112.2h-20.8V134h-5.9v-21.8H113v-5.5h20.8V85.1h5.9v21.6h20.8V112.2z"/>
</svg>
