<?xml version="1.0" encoding="utf-8"?>
<!-- Generator: Adobe Illustrator 19.0.1, SVG Export Plug-In . SVG Version: 6.00 Build 0)  -->
<svg version="1.1" id="Слой_1" xmlns="http://www.w3.org/2000/svg" xmlns:xlink="http://www.w3.org/1999/xlink" x="0px" y="0px"
	 viewBox="0 0 482 482" style="enable-background:new 0 0 482 482;" xml:space="preserve">
<style type="text/css">
	.st0{fill:#F7DDC4;}
	.st1{fill:#FFFFFF;}
</style>
<g>
	<path class="st0" d="M241,482c-64.4,0-124.9-25.1-170.4-70.6C25.1,365.9,0,305.4,0,241c0-64.4,25.1-124.9,70.6-170.4
		C116.1,25.1,176.6,0,241,0c64.4,0,124.9,25.1,170.4,70.6c45.5,45.5,70.6,106,70.6,170.4c0,64.4-25.1,124.9-70.6,170.4
		C365.9,456.9,305.4,482,241,482z M241,10C113.6,10,10,113.6,10,241s103.6,231,231,231s231-103.6,231-231S368.4,10,241,10z"/>
</g>
<g>
	<g>
		<path class="st1" d="M83.6,187.9v42.3h48.9v-42.3h13.2V289h-13.2v-47.4H83.6V289h-13V187.9H83.6z"/>
		<path class="st1" d="M187.5,199h-30.7v-11.1h74.8V199h-30.9v90h-13.2V199z"/>
		<path class="st1" d="M328.1,244.6c-0.8-14.1-1.7-31-1.5-43.6h-0.5c-3.4,11.8-7.6,24.4-12.7,38.4l-17.8,49h-9.9l-16.3-48.1
			c-4.8-14.2-8.8-27.3-11.7-39.3h-0.3c-0.3,12.6-1.1,29.5-2,44.7l-2.7,43.3h-12.4l7-101.1h16.6l17.2,48.9c4.2,12.4,7.6,23.5,10.2,34
			h0.5c2.5-10.2,6.2-21.3,10.6-34l18-48.9h16.6l6.3,101.1h-12.7L328.1,244.6z"/>
		<path class="st1" d="M363.5,187.9h13v90.1h43.2V289h-56.2V187.9z"/>
	</g>
	<g>
		<rect x="87" y="333.5" class="st1" width="308" height="3"/>
	</g>
</g>
</svg>
