<?xml version="1.0" encoding="utf-8"?>
<!-- Generator: Adobe Illustrator 19.0.1, SVG Export Plug-In . SVG Version: 6.00 Build 0)  -->
<svg version="1.1" id="Слой_1" xmlns="http://www.w3.org/2000/svg" xmlns:xlink="http://www.w3.org/1999/xlink" x="0px" y="0px"
	 viewBox="-64 156 482 482" style="enable-background:new -64 156 482 482;" xml:space="preserve">
<style type="text/css">
	.st0{fill:#FFFFFF;}
	.st1{fill:#F7DDC4;}
</style>
<g>
	<g>
		<path class="st0" d="M19.6,343.9v42.3h48.9v-42.3h13.2V445H68.5v-47.4H19.6V445h-13V343.9H19.6z"/>
		<path class="st0" d="M123.5,355H92.8v-11.1h74.8V355h-30.9v90h-13.2L123.5,355L123.5,355z"/>
		<path class="st0" d="M264.1,400.6c-0.8-14.1-1.7-31-1.5-43.6h-0.5c-3.4,11.8-7.6,24.4-12.7,38.4l-17.8,49h-9.9l-16.3-48.1
			c-4.8-14.2-8.8-27.3-11.7-39.3h-0.3c-0.3,12.6-1.1,29.5-2,44.7l-2.7,43.3h-12.4l7-101.1h16.6l17.2,48.9c4.2,12.4,7.6,23.5,10.2,34
			h0.5c2.5-10.2,6.2-21.3,10.6-34l18-48.9H273l6.3,101.1h-12.7L264.1,400.6z"/>
		<path class="st0" d="M299.5,343.9h13V434h43.2v11h-56.2V343.9z"/>
	</g>
	<g>
		<rect x="23" y="489.5" class="st0" width="308" height="3"/>
	</g>
</g>
<path class="st1" d="M177,162c31.7,0,62.5,6.2,91.5,18.5c28,11.8,53.1,28.8,74.7,50.4s38.5,46.7,50.4,74.7
	c12.3,29,18.5,59.7,18.5,91.5s-6.2,62.5-18.5,91.5c-11.8,28-28.8,53.1-50.4,74.7c-21.6,21.6-46.7,38.5-74.7,50.4
	c-29,12.3-59.7,18.5-91.5,18.5s-62.5-6.2-91.5-18.5c-28-11.8-53.1-28.8-74.7-50.4c-21.6-21.6-38.5-46.7-50.4-74.7
	C-51.8,459.5-58,428.7-58,397s6.2-62.5,18.5-91.5c11.8-28,28.8-53.1,50.4-74.7s46.7-38.5,74.7-50.4C114.5,168.2,145.3,162,177,162
	 M177,156C43.9,156-64,263.9-64,397S43.9,638,177,638s241-107.9,241-241S310.1,156,177,156L177,156z"/>
</svg>
