<?xml version="1.0" encoding="utf-8"?>
<!-- Generator: Adobe Illustrator 19.0.1, SVG Export Plug-In . SVG Version: 6.00 Build 0)  -->
<svg version="1.1" id="Слой_1" xmlns="http://www.w3.org/2000/svg" xmlns:xlink="http://www.w3.org/1999/xlink" x="0px" y="0px"
	 viewBox="-64 156 482 482" style="enable-background:new -64 156 482 482;" xml:space="preserve">
<style type="text/css">
	.st0{fill:#FFFFFF;}
	.st1{fill:#F7DDC4;}
</style>
<g>
	<g>
		<rect x="23" y="489.5" class="st0" width="308" height="3"/>
	</g>
	<g>
		<path class="st0" d="M145.2,345.3h12.7v66c0,26.2-12.9,34.3-29.9,34.3c-4.7,0-10.4-1-13.6-2.3l1.9-10.4c2.6,1,6.4,1.9,10.7,1.9
			c11.4,0,18.2-5.1,18.2-24.4L145.2,345.3L145.2,345.3z"/>
		<path class="st0" d="M177.4,428.4c5.7,3.5,14.1,6.4,22.8,6.4c13,0,20.6-6.9,20.6-16.8c0-9.2-5.3-14.5-18.6-19.6
			c-16.1-5.7-26.1-14.1-26.1-28c0-15.4,12.7-26.8,31.9-26.8c10.1,0,17.4,2.3,21.8,4.8l-3.5,10.4c-3.2-1.8-9.8-4.7-18.7-4.7
			c-13.5,0-18.6,8.1-18.6,14.8c0,9.2,6,13.8,19.6,19c16.7,6.4,25.2,14.5,25.2,29c0,15.2-11.3,28.4-34.5,28.4
			c-9.5,0-19.9-2.8-25.2-6.3L177.4,428.4z"/>
	</g>
</g>
<path class="st1" d="M177,162c31.7,0,62.5,6.2,91.5,18.5c28,11.8,53.1,28.8,74.7,50.4s38.5,46.7,50.4,74.7
	c12.3,29,18.5,59.7,18.5,91.5s-6.2,62.5-18.5,91.5c-11.8,28-28.8,53.1-50.4,74.7c-21.6,21.6-46.7,38.5-74.7,50.4
	c-29,12.3-59.7,18.5-91.5,18.5s-62.5-6.2-91.5-18.5c-28-11.8-53.1-28.8-74.7-50.4c-21.6-21.6-38.5-46.7-50.4-74.7
	C-51.8,459.5-58,428.7-58,397s6.2-62.5,18.5-91.5c11.8-28,28.8-53.1,50.4-74.7s46.7-38.5,74.7-50.4C114.5,168.2,145.3,162,177,162
	 M177,156C43.9,156-64,263.9-64,397S43.9,638,177,638s241-107.9,241-241S310.1,156,177,156L177,156z"/>
</svg>
