<?xml version="1.0" encoding="utf-8"?>
<!-- Generator: Adobe Illustrator 19.0.1, SVG Export Plug-In . SVG Version: 6.00 Build 0)  -->
<svg version="1.1" id="Слой_1" xmlns="http://www.w3.org/2000/svg" xmlns:xlink="http://www.w3.org/1999/xlink" x="0px" y="0px"
	 viewBox="0 0 482 482" style="enable-background:new 0 0 482 482;" xml:space="preserve">
<style type="text/css">
	.st0{fill:#F7DDC4;}
	.st1{fill:#FFFFFF;}
</style>
<g>
	<path class="st0" d="M241,482c-64.4,0-124.9-25.1-170.4-70.6C25.1,365.9,0,305.4,0,241c0-64.4,25.1-124.9,70.6-170.4
		C116.1,25.1,176.6,0,241,0c64.4,0,124.9,25.1,170.4,70.6c45.5,45.5,70.6,106,70.6,170.4c0,64.4-25.1,124.9-70.6,170.4
		C365.9,456.9,305.4,482,241,482z M241,10C113.6,10,10,113.6,10,241s103.6,231,231,231s231-103.6,231-231S368.4,10,241,10z"/>
</g>
<g>
	<g>
		<rect x="87" y="333.5" class="st1" width="308" height="3"/>
	</g>
	<g>
		<path class="st1" d="M209.2,189.3h12.7v66c0,26.2-12.9,34.3-29.9,34.3c-4.7,0-10.4-1-13.6-2.3l1.9-10.4c2.6,1,6.4,1.9,10.7,1.9
			c11.4,0,18.2-5.1,18.2-24.4V189.3z"/>
		<path class="st1" d="M241.4,272.4c5.7,3.5,14.1,6.4,22.8,6.4c13,0,20.6-6.9,20.6-16.8c0-9.2-5.3-14.5-18.6-19.6
			c-16.1-5.7-26.1-14.1-26.1-28c0-15.4,12.7-26.8,31.9-26.8c10.1,0,17.4,2.3,21.8,4.8l-3.5,10.4c-3.2-1.8-9.8-4.7-18.7-4.7
			c-13.5,0-18.6,8.1-18.6,14.8c0,9.2,6,13.8,19.6,19c16.7,6.4,25.2,14.5,25.2,29c0,15.2-11.3,28.4-34.5,28.4
			c-9.5,0-19.9-2.8-25.2-6.3L241.4,272.4z"/>
	</g>
</g>
</svg>
