<?xml version="1.0" encoding="utf-8"?>
<!-- Generator: Adobe Illustrator 19.0.1, SVG Export Plug-In . SVG Version: 6.00 Build 0)  -->
<svg version="1.1" id="Слой_1" xmlns="http://www.w3.org/2000/svg" xmlns:xlink="http://www.w3.org/1999/xlink" x="0px" y="0px"
	 viewBox="0 0 800 800" style="enable-background:new 0 0 800 800;" xml:space="preserve">
<style type="text/css">
	.st0{display:none;fill:#6A8BA6;}
	.st1{fill:#E0E0E0;}
	.st2{fill:#DEDEDE;}
	.st3{fill:#828282;}
	.st4{fill:#919191;}
	.st5{fill:#C9C9C9;}
	.st6{fill:#B7B7B7;}
	.st7{fill:#C7C7C7;}
	.st8{fill:#9A9A9A;}
	.st9{fill:#BDBDBD;}
	.st10{fill:#9E9E9E;}
	.st11{fill:#989898;}
	.st12{fill:#DDDDDD;}
	.st13{fill:#A6A6A6;}
	.st14{fill:#D8D8D8;}
	.st15{fill:#B4B4B4;}
	.st16{fill:#979797;}
	.st17{fill:#707070;}
	.st18{fill:#CBCBCB;}
	.st19{fill:#CDCDCD;}
	.st20{fill:#8D8D8D;}
	.st21{fill:#A9A9A9;}
	.st22{fill:#878787;}
	.st23{fill:#7D7D7D;}
	.st24{fill:#ACACAC;}
	.st25{fill:#656565;}
	.st26{fill:#848484;}
	.st27{fill:#A2A2A2;}
	.st28{fill:#BFBFBF;}
	.st29{fill:#AFAFAF;}
	.st30{fill:#D4D4D4;}
	.st31{fill:#A0A0A0;}
	.st32{fill:#D2D2D2;}
	.st33{fill:#DFDFDF;}
	.st34{fill:#E6E6E6;}
	.st35{fill:#EBEBEB;}
	.st36{fill:#F4F4F4;}
	.st37{fill:#E2E2E2;}
	.st38{fill:#D9D9D9;}
	.st39{fill:#E1E1E1;}
	.st40{fill:#F0F0F0;}
	.st41{fill:#BEBEBE;}
	.st42{fill:#CECECE;}
	.st43{fill:#C1C1C1;}
	.st44{fill:#D6D6D6;}
	.st45{fill:#BABABA;}
	.st46{fill:#E4E4E4;}
	.st47{fill:#B8B8B8;}
	.st48{fill:#C8C8C8;}
	.st49{fill:#939393;}
	.st50{fill:#ABABAB;}
	.st51{fill:#D5D5D5;}
	.st52{fill:#414141;}
	.st53{fill:#A5A5A5;}
	.st54{fill:#C4C4C4;}
	.st55{fill:#8B8B8B;}
	.st56{fill:#555555;}
	.st57{fill:#4D4D4D;}
	.st58{fill:#B2B2B2;}
	.st59{fill:#949494;}
	.st60{fill:#E8E8E8;}
	.st61{fill:#F1F1F1;}
	.st62{fill:#686868;}
	.st63{fill:#EEEEEE;}
	.st64{fill:#CACACA;}
	.st65{fill:#F7F7F7;}
	.st66{fill:#3B3B3B;}
	.st67{fill:#393939;}
	.st68{fill:#454545;}
	.st69{fill:#A1A1A1;}
	.st70{fill:#3D3D3D;}
	.st71{fill:#585858;}
	.st72{fill:#666666;}
	.st73{fill:#7F7F7F;}
	.st74{fill:#9F9F9F;}
	.st75{fill:#898989;}
	.st76{fill:#9B9B9B;}
	.st77{fill:#959595;}
	.st78{fill:#AEAEAE;}
	.st79{fill:#DCDCDC;}
	.st80{fill:#CCCCCC;}
	.st81{fill:#C3C3C3;}
	.st82{fill:#B1B1B1;}
	.st83{fill:#D3D3D3;}
	.st84{fill:#808080;}
	.st85{fill:#A4A4A4;}
	.st86{fill:#BCBCBC;}
	.st87{fill:#929292;}
	.st88{fill:#757575;}
	.st89{fill:#DADADA;}
	.st90{fill:#575757;}
	.st91{fill:#535353;}
	.st92{fill:#4C4C4C;}
	.st93{fill:#5D5D5D;}
	.st94{fill:#484848;}
	.st95{fill:#E5E5E5;}
	.st96{fill:#9C9C9C;}
	.st97{fill:#D0D0D0;}
	.st98{fill:#909090;}
	.st99{fill:#ECECEC;}
	.st100{fill:#E9E9E9;}
	.st101{fill:#D7D7D7;}
	.st102{fill:#C6C6C6;}
	.st103{fill:#3F3F3F;}
	.st104{fill:#888888;}
	.st105{fill:#676767;}
	.st106{fill:#434343;}
	.st107{fill:#5C5C5C;}
	.st108{fill:#8F8F8F;}
	.st109{fill:#7B7B7B;}
	.st110{fill:#999999;}
	.st111{fill:#767676;}
	.st112{fill:#404040;}
	.st113{fill:#2A2A2A;}
	.st114{fill:#858585;}
	.st115{fill:#A8A8A8;}
	.st116{fill:#444444;}
	.st117{fill:#565656;}
	.st118{fill:#B6B6B6;}
	.st119{fill:#F2F2F2;}
	.st120{fill:#EFEFEF;}
	.st121{fill:#6E6E6E;}
	.st122{fill:#DBDBDB;}
	.st123{fill:#B5B5B5;}
	.st124{fill:#515151;}
	.st125{fill:#8C8C8C;}
	.st126{fill:#A7A7A7;}
	.st127{fill:#424242;}
	.st128{fill:#2E2E2E;}
	.st129{fill:#818181;}
	.st130{fill:#EDEDED;}
	.st131{fill:#C0C0C0;}
	.st132{fill:#7C7C7C;}
	.st133{fill:#B9B9B9;}
	.st134{fill:#FAFAFA;}
	.st135{fill:#525252;}
	.st136{fill:#5A5A5A;}
	.st137{fill:#F6F6F6;}
	.st138{fill:#F8F8F8;}
	.st139{fill:#838383;}
	.st140{fill:#C5C5C5;}
	.st141{fill:#6A6A6A;}
	.st142{fill:#E7E7E7;}
	.st143{fill:#5E5E5E;}
	.st144{fill:#969696;}
	.st145{fill:#EAEAEA;}
	.st146{fill:#4E4E4E;}
	.st147{fill:#C2C2C2;}
	.st148{fill:#696969;}
	.st149{fill:#7E7E7E;}
	.st150{fill:#8A8A8A;}
	.st151{fill:#797979;}
	.st152{fill:#D1D1D1;}
	.st153{fill:#E3E3E3;}
	.st154{fill:#ADADAD;}
	.st155{fill:#8E8E8E;}
	.st156{fill:#505050;}
	.st157{fill:#606060;}
	.st158{fill:#373737;}
	.st159{fill:#F5F5F5;}
	.st160{fill:#AAAAAA;}
	.st161{fill:#313131;}
	.st162{fill:#323232;}
	.st163{fill:#4F4F4F;}
	.st164{fill:#212121;}
	.st165{fill:#242424;}
	.st166{fill:#3A3A3A;}
	.st167{fill:#363636;}
	.st168{fill:#292929;}
	.st169{fill:#353535;}
	.st170{fill:#171717;}
	.st171{fill:#5F5F5F;}
	.st172{fill:#1F1F1F;}
	.st173{fill:#282828;}
	.st174{fill:#0F0F0F;}
	.st175{fill:#161616;}
	.st176{fill:#1C1C1C;}
	.st177{fill:#333333;}
	.st178{fill:#646464;}
	.st179{fill:#5B5B5B;}
	.st180{fill:#6B6B6B;}
	.st181{fill:#545454;}
	.st182{fill:#494949;}
	.st183{fill:#B3B3B3;}
	.st184{fill:#464646;}
	.st185{fill:#383838;}
	.st186{fill:#636363;}
	.st187{fill:#272727;}
	.st188{fill:#222222;}
	.st189{fill:#2D2D2D;}
	.st190{fill:#2F2F2F;}
	.st191{fill:#BBBBBB;}
	.st192{fill:#CFCFCF;}
	.st193{fill:#787878;}
	.st194{fill:#868686;}
	.st195{fill:#727272;}
	.st196{fill:#747474;}
	.st197{fill:#7A7A7A;}
	.st198{fill:#777777;}
	.st199{fill:#A3A3A3;}
	.st200{fill:#6D6D6D;}
	.st201{fill:#616161;}
	.st202{fill:#F9F9F9;}
	.st203{fill:#4B4B4B;}
	.st204{fill:#4A4A4A;}
	.st205{fill:#F3F3F3;}
</style>
<rect class="st0" width="800" height="800"/>
<g>
	<polygon class="st1" points="489.8,714.8 511.2,688.8 479.8,692.2 	"/>
	<polygon class="st2" points="461.1,714.8 467.4,732 472.5,711.6 	"/>
	<polygon class="st3" points="323.9,623.3 329.3,648.3 332.5,623 	"/>
	<polygon class="st4" points="329.3,648.3 335.3,656.3 332.5,623 	"/>
	<polygon class="st5" points="325.3,587 323.9,623.3 332.5,623 	"/>
	<polygon class="st6" points="314,620.5 323.9,623.3 313.5,579.8 	"/>
	<polygon class="st7" points="308.3,617.5 314,620.5 313.5,579.8 	"/>
	<polygon class="st8" points="332.5,623 335.3,656.3 346,656.5 	"/>
	<polygon class="st9" points="313.5,579.8 323.9,623.3 325.3,587 	"/>
	<polygon class="st10" points="341.1,665.9 352.8,664.3 346,656.5 	"/>
	<polygon class="st11" points="352.8,664.3 370,676.2 368,663.5 	"/>
	<polygon class="st12" points="361.8,638.5 352.8,664.3 368,663.5 	"/>
	<polygon class="st13" points="368,663.5 370,676.2 383.5,670.8 	"/>
	<polygon class="st14" points="350.5,627 352.8,664.3 361.8,638.5 	"/>
	<polygon class="st15" points="346,656.5 352.8,664.3 350.5,627 	"/>
	<polygon class="st16" points="335.3,656.3 341.1,665.9 346,656.5 	"/>
	<polygon class="st17" points="304,613 306.3,632.5 308.3,617.5 	"/>
	<polygon class="st18" points="274.3,482.8 297,507.3 295,494.8 	"/>
	<polygon class="st19" points="297,507.3 302.3,538.5 312.5,520.7 	"/>
	<polygon class="st20" points="312.5,475.3 274.3,482.8 295,494.8 	"/>
	<polygon class="st11" points="266.5,462.5 274.3,482.8 282.3,462.5 	"/>
	<polygon class="st21" points="312.5,520.7 302.3,538.5 314.8,537.3 	"/>
	<polygon class="st22" points="282.3,462.5 274.3,482.8 312.5,475.3 	"/>
	<polygon class="st23" points="314.8,565.8 305.5,584.8 313.5,579.8 	"/>
	<polygon class="st24" points="305.5,584.8 304,613 313.5,579.8 	"/>
	<polygon class="st25" points="306.3,632.5 314,620.5 308.3,617.5 	"/>
	<polygon class="st22" points="275.3,450.5 266.5,462.5 282.3,462.5 	"/>
	<polygon class="st4" points="314.8,537.3 306.8,565.8 314.8,565.8 	"/>
	<polygon class="st26" points="306.8,565.8 305.5,584.8 314.8,565.8 	"/>
	<polygon class="st27" points="302.3,538.5 306.8,565.8 314.8,537.3 	"/>
	<polygon class="st28" points="313.5,579.8 304,613 308.3,617.5 	"/>
	<polygon class="st5" points="477.5,589 474,583.8 475.5,617.5 	"/>
	<polygon class="st29" points="466.3,591 474,583.8 457.5,584 	"/>
	<polygon class="st30" points="471.8,623.3 475.5,617.5 474,583.8 466.3,591 	"/>
	<polygon class="st31" points="483.5,581.8 474,583.8 477.5,589 	"/>
	<polygon class="st28" points="370,676.2 395.9,674.9 383.5,670.8 	"/>
	<polygon class="st32" points="484.8,614.3 483.5,581.8 477.5,589 	"/>
	<polygon class="st33" points="475.5,617.5 484.8,614.3 477.5,589 	"/>
	<polygon class="st34" points="457.5,584 474,583.8 455.5,572.1 	"/>
	<polygon class="st35" points="460.5,527 468.7,555.7 464.3,514.5 	"/>
	<polygon class="st36" points="460.5,559.4 468.7,555.7 460.5,527 	"/>
	<polygon class="st33" points="464.3,514.5 468.7,555.7 475.7,535.8 	"/>
	<polygon class="st34" points="471.8,623.3 485.5,639.8 475.5,617.5 	"/>
	<polygon class="st30" points="474,583.8 468.7,555.7 460.5,559.4 	"/>
	<polygon class="st37" points="455.5,572.1 474,583.8 460.5,559.4 	"/>
	<polygon class="st38" points="485.5,639.8 484.8,614.3 475.5,617.5 	"/>
	<polygon class="st39" points="443.1,670.8 450,663.3 424.8,668.8 	"/>
	<polygon class="st30" points="424.8,668.8 450,663.3 433,663.3 	"/>
	<polygon class="st40" points="420.4,675.6 443.1,670.8 424.8,668.8 	"/>
	<polygon class="st41" points="450,663.3 458.8,651.3 433,663.3 	"/>
	<polygon class="st15" points="383.5,670.8 395.9,674.9 402.5,670.8 	"/>
	<polygon class="st41" points="395.9,674.9 420.4,675.6 402.5,670.8 	"/>
	<polygon class="st12" points="470,648.8 485.5,639.8 471.8,623.3 	"/>
	<polygon class="st42" points="402.5,670.8 420.4,675.6 424.8,668.8 	"/>
	<polygon class="st43" points="458.8,651.3 468.9,658.9 469.4,648.9 	"/>
	<polygon class="st44" points="469.4,648.9 469.4,648.9 470,648.8 453.5,631.8 458.8,651.3 469.4,648.9 	"/>
	<polygon class="st44" points="433,663.3 458.8,651.3 436.8,635.3 	"/>
	<polygon class="st45" points="469.4,648.9 468.9,658.9 485.5,639.8 470,648.8 	"/>
	<polygon class="st46" points="436.8,635.3 458.8,651.3 445.3,626.8 	"/>
	<polygon class="st47" points="445.3,626.8 458.8,651.3 453.5,631.8 	"/>
	<polygon class="st48" points="503.8,463.3 500.2,452.2 482.2,441 482.2,441.7 	"/>
	<polygon class="st49" points="415.1,340 415.4,339.2 415.4,339.2 415.4,339.2 420,323.5 404.5,329 	"/>
	<polygon class="st50" points="420,323.5 414.8,302.8 404.5,329 	"/>
	<polygon class="st51" points="439.8,337.2 420,323.5 415.4,339.2 	"/>
	<polygon class="st52" points="397.1,360.5 418.5,355.8 397.1,341 	"/>
	<polygon class="st53" points="450.8,302.7 414.8,302.8 420,323.5 	"/>
	<polygon class="st54" points="414.8,302.8 387,326.8 404.5,329 	"/>
	<polygon class="st55" points="347.8,314.8 380.5,333.5 387,326.8 	"/>
	<polygon class="st56" points="397.1,341 418.5,355.8 415.1,340 	"/>
	<polygon class="st57" points="418.5,355.8 425.7,351.8 415.1,340 	"/>
	<polygon class="st58" points="387,326.8 380.5,333.5 404.5,329 	"/>
	<polygon class="st13" points="415.4,339.2 415.1,340 425.7,351.8 439.8,337.2 	"/>
	<polygon class="st1" points="414.8,388.3 418.5,355.8 397.1,360.5 	"/>
	<polygon class="st59" points="380.5,333.5 397.1,341 404.5,329 	"/>
	<polygon class="st31" points="404.5,329 397.1,341 415.1,340 	"/>
	<polygon class="st6" points="425.7,351.8 452.7,341 439.8,337.2 	"/>
	<polygon class="st1" points="481.9,441.1 481.8,440.8 457.5,430 458.7,455 	"/>
	<polygon class="st30" points="436,384.3 418.5,355.8 414.8,388.3 	"/>
	<polygon class="st37" points="482.2,458.2 503.8,463.3 482.2,441.7 	"/>
	<polygon class="st60" points="457.5,430 444.8,419.5 458.7,455 	"/>
	<polygon class="st61" points="468.7,555.7 484,538.5 475.7,535.8 	"/>
	<polygon class="st9" points="437.7,411 436,384.3 430.3,410.2 	"/>
	<polygon class="st62" points="297,445.5 275.3,450.5 282.3,462.5 	"/>
	<polygon class="st63" points="458.7,455 444.8,419.5 442.8,427.4 	"/>
	<polygon class="st64" points="420,407.7 436,384.3 414.8,388.3 	"/>
	<polygon class="st20" points="444.8,419.5 436,384.3 437.7,411 	"/>
	<polygon class="st65" points="442.8,427.4 444.8,419.5 437.7,411 	"/>
	<polygon class="st51" points="430.3,410.2 436,384.3 420,407.7 	"/>
	<polygon class="st66" points="381.3,392.3 364,398.3 374.5,416.3 	"/>
	<polygon class="st67" points="387,368.3 364,366.5 381.3,392.3 	"/>
	<polygon class="st59" points="333.8,312.4 344.5,333.5 347.8,314.8 	"/>
	<polygon class="st68" points="376.3,355.8 364,366.5 387,368.3 	"/>
	<polygon class="st69" points="347.8,314.8 344.5,333.5 380.5,333.5 	"/>
	<polygon class="st70" points="356.8,349.5 364,366.5 376.3,355.8 	"/>
	<polygon class="st71" points="364,366.5 364,398.3 381.3,392.3 	"/>
	<polygon class="st46" points="452.7,341 458.3,314.8 439.8,337.2 	"/>
	<polygon class="st72" points="364,398.3 335,428 374.5,416.3 	"/>
	<polygon class="st71" points="309.8,451.1 297,445.5 282.3,462.5 	"/>
	<polygon class="st73" points="295,439 297,445.5 309.8,451.1 	"/>
	<polygon class="st15" points="348.6,435.8 335,428 309.8,451.1 	"/>
	<polygon class="st74" points="374.5,416.3 335,428 348.6,435.8 	"/>
	<polygon class="st75" points="335,428 295,439 309.8,451.1 	"/>
	<polygon class="st76" points="498.7,291.4 445.5,286.8 450.8,302.7 	"/>
	<polygon class="st77" points="450.8,302.7 445.5,286.8 414.8,302.8 	"/>
	<polygon class="st60" points="445.5,286.8 372.9,245.5 414.8,302.8 	"/>
	<polygon class="st78" points="458.3,314.8 498.7,291.4 450.8,302.7 	"/>
	<polygon class="st18" points="420,323.5 458.3,314.8 450.8,302.7 	"/>
	<polygon class="st79" points="439.8,337.2 458.3,314.8 420,323.5 	"/>
	<polygon class="st80" points="414.8,302.8 355.7,291.4 387,326.8 	"/>
	<polygon class="st81" points="347.8,314.8 355.7,291.4 333.8,312.4 	"/>
	<polygon class="st64" points="355.7,291.4 278.5,303.3 333.8,312.4 	"/>
	<polygon class="st82" points="278.5,303.3 318.5,322.3 333.8,312.4 	"/>
	<polygon class="st10" points="318.5,322.3 344.5,333.5 333.8,312.4 	"/>
	<polygon class="st83" points="387,326.8 355.7,291.4 347.8,314.8 	"/>
	<polygon class="st33" points="372.9,245.5 355.7,291.4 414.8,302.8 	"/>
	<polygon class="st84" points="238.8,469.8 249.3,490.5 256.5,471.5 	"/>
	<polygon class="st15" points="507.5,473 503.8,463.3 482.2,458.2 	"/>
	<polygon class="st85" points="256.5,471.5 249.3,490.5 262.3,491.3 	"/>
	<polygon class="st86" points="249.3,490.5 269.8,505.8 262.3,491.3 	"/>
	<polygon class="st87" points="266.5,462.5 262,450.5 256.5,471.5 	"/>
	<polygon class="st88" points="275.3,450.5 262,450.5 266.5,462.5 	"/>
	<polygon class="st14" points="266.5,441 262,450.5 275.3,450.5 	"/>
	<polygon class="st55" points="262,450.5 238.8,469.8 256.5,471.5 	"/>
	<polygon class="st89" points="262.3,491.3 269.8,505.8 274.3,482.8 	"/>
	<polygon class="st90" points="306.8,565.8 297,583 305.5,584.8 	"/>
	<polygon class="st2" points="297,507.3 281.5,523 302.3,538.5 	"/>
	<polygon class="st91" points="302.3,538.5 299.5,557.8 306.8,565.8 	"/>
	<polygon class="st92" points="291.3,575 297,583 306.8,565.8 	"/>
	<polygon class="st93" points="295,541 299.5,557.8 302.3,538.5 	"/>
	<polygon class="st94" points="281.5,523 295,541 302.3,538.5 	"/>
	<polygon class="st94" points="299.5,557.8 291.3,575 306.8,565.8 	"/>
	<polygon class="st29" points="302.3,272.7 262,271.3 278.5,303.3 	"/>
	<polygon class="st28" points="278.5,243.5 262,271.3 302.3,272.7 	"/>
	<polygon class="st64" points="278.5,303.3 230.5,311.5 241.8,317.2 	"/>
	<polygon class="st29" points="242.8,217.8 236.8,245.5 257.3,207.7 	"/>
	<polygon class="st78" points="230.5,311.5 221.2,337 241.8,317.2 	"/>
	<polygon class="st16" points="236.8,245.5 262,271.3 257.3,207.7 	"/>
	<polygon class="st41" points="257.3,207.7 262,271.3 278.5,243.5 	"/>
	<polygon class="st81" points="234.8,340 252.8,342.8 261.9,329 	"/>
	<polygon class="st95" points="241.8,317.2 221.2,337 261.9,329 	"/>
	<polygon class="st58" points="295,439 266.5,441 297,445.5 	"/>
	<polygon class="st96" points="261.9,329 252.8,342.8 283,333.3 	"/>
	<polygon class="st97" points="297,445.5 266.5,441 275.3,450.5 	"/>
	<polygon class="st18" points="221.2,337 234.8,340 261.9,329 	"/>
	<polygon class="st98" points="314,620.5 319.3,647.3 323.9,623.3 	"/>
	<polygon class="st32" points="368.8,696.1 400.6,696.9 370,676.2 	"/>
	<polygon class="st24" points="370,676.2 400.6,696.9 395.9,674.9 	"/>
	<polygon class="st10" points="353.8,682.7 368.8,696.1 370,676.2 	"/>
	<polygon class="st23" points="336,686.4 353.8,682.7 352.8,664.3 	"/>
	<polygon class="st88" points="341.1,665.9 336,686.4 352.8,664.3 	"/>
	<polygon class="st53" points="395.9,674.9 400.6,696.9 408.5,684.4 	"/>
	<polygon class="st55" points="352.8,664.3 353.8,682.7 370,676.2 	"/>
	<polygon class="st99" points="443.1,670.8 455,670.8 450,663.3 	"/>
	<polygon class="st100" points="400.6,696.9 410.3,708.8 408.5,684.4 	"/>
	<polygon class="st101" points="450,663.3 455,670.8 458.8,651.3 	"/>
	<polygon class="st48" points="458.8,651.3 455,670.8 468.9,658.9 	"/>
	<polygon class="st26" points="326,659.5 336,686.4 341.1,665.9 	"/>
	<polygon class="st46" points="434.1,682.7 455,670.8 443.1,670.8 	"/>
	<polygon class="st102" points="420.4,675.6 434.1,682.7 443.1,670.8 	"/>
	<polygon class="st20" points="305.5,584.8 295,603 304,613 	"/>
	<polygon class="st103" points="280.2,627.5 292.3,642.3 297.8,630.5 	"/>
	<polygon class="st66" points="297.8,630.5 292.3,642.3 306.3,632.5 	"/>
	<polygon class="st94" points="297,611.8 280.2,627.5 297.8,630.5 	"/>
	<polygon class="st88" points="295,603 297,611.8 304,613 	"/>
	<polygon class="st104" points="335.3,656.3 326,659.5 341.1,665.9 	"/>
	<polygon class="st105" points="297,583 295,603 305.5,584.8 	"/>
	<polygon class="st106" points="292.3,642.3 315,638.3 306.3,632.5 	"/>
	<polygon class="st107" points="304,613 297,611.8 297.8,630.5 	"/>
	<polygon class="st58" points="323.9,623.3 319.3,647.3 329.3,648.3 	"/>
	<polygon class="st25" points="329.3,648.3 319.3,647.3 335.3,656.3 	"/>
	<polygon class="st88" points="319.3,647.3 326,659.5 335.3,656.3 	"/>
	<polygon class="st108" points="234.8,187.3 242.8,217.8 257.3,207.7 	"/>
	<polygon class="st88" points="306.3,632.5 315,638.3 314,620.5 	"/>
	<polygon class="st109" points="315,638.3 319.3,647.3 314,620.5 	"/>
	<polygon class="st79" points="536.7,322 543.8,309.1 518.2,312.8 	"/>
	<polygon class="st110" points="469,414 448.8,404 457.5,430 	"/>
	<polygon class="st34" points="458.3,314.8 475.8,332 482.2,322.3 	"/>
	<polygon class="st88" points="448.8,404 445.2,376.7 444.8,419.5 	"/>
	<polygon class="st24" points="444.8,419.5 445.2,376.7 436,384.3 	"/>
	<polygon class="st47" points="482.2,441 500.2,452.2 475.8,422.3 481.9,440.9 	"/>
	<polygon class="st59" points="481.9,440.9 475.8,422.3 469,414 481.8,440.8 	"/>
	<polygon class="st15" points="481.8,440.8 469,414 457.5,430 	"/>
	<polygon class="st111" points="445.2,376.7 439.8,362.8 436,384.3 	"/>
	<polygon class="st112" points="453.5,344.6 475.8,332 452.7,341 	"/>
	<polygon class="st89" points="452.7,341 475.8,332 458.3,314.8 	"/>
	<polygon class="st76" points="497.3,431.2 475.8,422.3 500.2,452.2 	"/>
	<polygon class="st113" points="446.5,351.6 453.5,344.6 452.7,341 	"/>
	<polygon class="st4" points="425.7,351.8 418.5,355.8 439.8,362.8 	"/>
	<polygon class="st31" points="418.5,355.8 436,384.3 439.8,362.8 	"/>
	<polygon class="st55" points="425.7,351.8 446.5,351.6 452.7,341 	"/>
	<polygon class="st114" points="457.5,430 448.8,404 444.8,419.5 	"/>
	<polygon class="st53" points="245.3,166.8 234.8,187.3 257.3,207.7 	"/>
	<polygon class="st27" points="481.6,483 507.5,499.2 507.5,473 	"/>
	<polygon class="st115" points="497.7,506.8 507.5,499.2 485,496.2 	"/>
	<polygon class="st43" points="471.2,497.8 480.7,512.3 485,496.2 	"/>
	<polygon class="st19" points="464.3,514.5 480.7,512.3 471.2,497.8 	"/>
	<polygon class="st49" points="507.5,499.2 518.9,483.8 507.5,473 	"/>
	<polygon class="st54" points="480.7,512.3 497.7,506.8 485,496.2 	"/>
	<polygon class="st95" points="530.5,465.8 545.8,450.5 510.5,462.7 	"/>
	<polygon class="st90" points="527.2,453.5 521.5,445.8 512.8,454.3 	"/>
	<polygon class="st3" points="518.9,483.8 521.5,471.8 507.5,473 	"/>
	<polygon class="st79" points="510.5,462.7 545.8,450.5 527.2,453.5 512.8,454.3 	"/>
	<polygon class="st116" points="521.5,445.8 497.3,431.2 512.8,454.3 	"/>
	<polygon class="st117" points="512.8,454.3 497.3,431.2 500.2,452.2 	"/>
	<polygon class="st18" points="534,474 530.5,465.8 510.5,462.7 	"/>
	<polygon class="st118" points="485,496.2 507.5,499.2 481.6,483 	"/>
	<polygon class="st36" points="330.5,181.5 286,213.5 372.9,245.5 	"/>
	<polygon class="st100" points="445.5,262.3 414.8,220.5 372.9,245.5 	"/>
	<polygon class="st119" points="368.5,176.6 330.5,181.5 372.9,245.5 	"/>
	<polygon class="st120" points="414.8,220.5 368.5,176.6 372.9,245.5 	"/>
	<polygon class="st33" points="485.5,277.4 481.3,245.5 445.5,262.3 	"/>
	<polygon class="st95" points="445.5,286.8 485.5,277.4 445.5,262.3 	"/>
	<polygon class="st40" points="455.5,220.5 414.8,220.5 445.5,262.3 	"/>
	<polygon class="st2" points="475.8,332 491.8,329.7 482.2,322.3 	"/>
	<polygon class="st83" points="286,213.5 272.1,152 257.3,207.7 	"/>
	<polygon class="st79" points="278.5,243.5 286,213.5 257.3,207.7 	"/>
	<polygon class="st28" points="272.1,152 245.3,166.8 257.3,207.7 	"/>
	<polygon class="st33" points="355.7,291.4 286,213.5 302.3,272.7 	"/>
	<polygon class="st99" points="372.9,245.5 286,213.5 355.7,291.4 	"/>
	<polygon class="st95" points="302.3,272.7 286,213.5 278.5,243.5 	"/>
	<polygon class="st100" points="481.3,245.5 455.5,220.5 445.5,262.3 	"/>
	<polygon class="st32" points="526.8,335.7 536.7,322 510.5,331.3 	"/>
	<polygon class="st21" points="513,339.2 526.8,335.7 510.5,331.3 	"/>
	<polygon class="st102" points="510.5,331.3 536.7,322 518.2,312.8 	"/>
	<polygon class="st12" points="518.2,312.8 491.8,329.7 510.5,331.3 	"/>
	<polygon class="st14" points="475.7,535.8 480.7,512.3 464.3,514.5 	"/>
	<polygon class="st111" points="491.8,329.7 500.2,337.8 510.5,331.3 	"/>
	<polygon class="st38" points="480.5,285.8 522.5,284.5 485.5,277.4 445.5,286.8 	"/>
	<polygon class="st121" points="500.2,337.8 513,339.2 510.5,331.3 	"/>
	<polygon class="st32" points="527.2,291.4 522.5,284.5 498.7,291.4 	"/>
	<polygon class="st50" points="445.5,286.8 498.7,291.4 522.5,284.5 480.5,285.8 	"/>
	<polygon class="st122" points="548.3,289.8 522.5,284.5 527.2,291.4 	"/>
	<polygon class="st89" points="543.8,309.1 548.3,289.8 532.8,296.3 	"/>
	<polygon class="st39" points="518.2,312.8 543.8,309.1 532.8,296.3 	"/>
	<polygon class="st123" points="532.8,296.3 548.3,289.8 527.2,291.4 	"/>
	<polygon class="st56" points="332.5,543.5 322.9,572.5 335.3,569.1 	"/>
	<polygon class="st30" points="423.5,467 433.8,461 424.8,446.5 	"/>
	<polygon class="st7" points="372.8,515 369.3,528.5 380.3,524.5 	"/>
	<polygon class="st35" points="417.3,527 395.8,532.8 398.3,538.5 	"/>
	<polygon class="st6" points="362.5,502.9 369.3,528.5 364,493.5 	"/>
	<polygon class="st42" points="380.3,576.3 397.1,555 384.5,549.5 	"/>
	<polygon class="st60" points="383.3,590.3 402.5,565.8 380.3,576.3 	"/>
	<polygon class="st124" points="352,497.3 369.3,528.5 362.5,502.9 	"/>
	<polygon class="st44" points="372.8,574 364.3,580.3 380.3,576.3 	"/>
	<polygon class="st125" points="397.1,555 385.5,540.4 384.5,549.5 	"/>
	<polygon class="st89" points="364.3,580.3 383.3,590.3 380.3,576.3 	"/>
	<polygon class="st37" points="433,663.3 436.8,635.3 424.8,668.8 	"/>
	<polygon class="st47" points="364,493.5 356.7,481 361.1,476 365.8,452.2 356.5,480.3 362.5,502.9 	"/>
	<polygon class="st126" points="385.5,540.4 378.6,543.5 384.5,549.5 	"/>
	<polygon class="st7" points="378.6,543.5 372.8,574 384.5,549.5 	"/>
	<polygon class="st127" points="356.5,480.3 352,497.3 362.5,502.9 	"/>
	<polygon class="st66" points="376.3,355.8 387,368.3 397.1,360.5 	"/>
	<polygon class="st33" points="437.7,411 430.3,410.2 442.8,427.4 	"/>
	<polygon class="st88" points="313.5,579.8 325.3,587 314.8,565.8 	"/>
	<polygon class="st128" points="397.1,341 376.3,355.8 397.1,360.5 	"/>
	<polygon class="st129" points="295,494.8 314.8,510.3 312.5,475.3 	"/>
	<polygon class="st68" points="331,467 331,492.5 362.8,437.3 	"/>
	<polygon class="st130" points="393.3,383.8 391.4,403 400,403 	"/>
	<polygon class="st95" points="382.5,637.3 397.1,596.9 371.8,598.3 	"/>
	<polygon class="st80" points="482.2,458.2 458.7,455 468.8,484.5 	"/>
	<polygon class="st80" points="370.7,454.3 365.8,452.2 361.1,476 	"/>
	<polygon class="st80" points="364,493.5 361.1,476 356.7,481 	"/>
	<polygon class="st30" points="449.5,551.3 449.5,516 434.8,548 	"/>
	<polygon class="st131" points="384.5,549.5 372.8,574 380.3,576.3 	"/>
	<polygon class="st38" points="383.3,590.3 412.3,578.5 402.5,565.8 	"/>
	<polygon class="st3" points="364.3,588.5 371.8,598.3 383.3,590.3 	"/>
	<polygon class="st132" points="397.1,596.9 409.8,591.5 383.3,590.3 	"/>
	<polygon class="st30" points="371.8,598.3 397.1,596.9 383.3,590.3 	"/>
	<polygon class="st12" points="358,572.5 345,583.4 364.3,580.3 	"/>
	<polygon class="st81" points="364.3,580.3 364.3,588.5 383.3,590.3 	"/>
	<polygon class="st133" points="345,583.4 364.3,588.5 364.3,580.3 	"/>
	<polygon class="st28" points="434.8,476 433.8,461 423.5,467 	"/>
	<polygon class="st33" points="447.5,474 433.8,461 434.8,476 	"/>
	<polygon class="st39" points="348.6,540.4 345,583.4 358,572.5 	"/>
	<polygon class="st134" points="433,509 447.5,474 434.8,476 	"/>
	<polygon class="st95" points="398.3,538.5 424.8,544.9 417.3,527 	"/>
	<polygon class="st51" points="402.5,565.8 424.8,544.9 398.3,538.5 	"/>
	<polygon class="st5" points="424.8,544.9 433,509 417.3,527 	"/>
	<polygon class="st35" points="395.8,532.8 380.3,524.5 380,530.9 	"/>
	<polygon class="st31" points="335.3,569.1 345,583.4 348.6,540.4 	"/>
	<polygon class="st66" points="398.3,538.5 380,530.9 369.3,528.5 385.5,540.4 	"/>
	<polygon class="st36" points="380.3,576.3 402.5,565.8 397.1,555 	"/>
	<polygon class="st135" points="397.1,555 398.3,538.5 385.5,540.4 	"/>
	<polygon class="st136" points="402.5,565.8 398.3,538.5 397.1,555 	"/>
	<polygon class="st122" points="398.3,538.5 395.8,532.8 380,530.9 	"/>
	<polygon class="st16" points="385.5,540.4 369.3,528.5 378.6,543.5 	"/>
	<polygon class="st51" points="380.3,524.5 369.3,528.5 380,530.9 	"/>
	<polygon class="st43" points="369.3,528.5 346,518.3 348.6,540.4 	"/>
	<polygon class="st2" points="378.6,543.5 369.3,528.5 372.8,574 	"/>
	<polygon class="st30" points="358,572.5 369.3,528.5 348.6,540.4 	"/>
	<polygon class="st136" points="346,518.3 343,530.8 335.3,569.1 348.6,540.4 	"/>
	<polygon class="st34" points="372.8,574 369.3,528.5 364.3,580.3 	"/>
	<polygon class="st37" points="364.3,580.3 369.3,528.5 358,572.5 	"/>
	<polygon class="st51" points="364,493.5 369.3,528.5 372.8,515 	"/>
	<polygon class="st118" points="293.5,84 269.8,110 311.6,111 	"/>
	<polygon class="st115" points="271,90 269.8,110 293.5,84 	"/>
	<polygon class="st38" points="356.7,59.7 333,76 372.9,71.5 	"/>
	<polygon class="st29" points="269.8,110 259.8,146.3 311.6,111 	"/>
	<polygon class="st109" points="259.2,637.8 270.5,636.3 262.3,612.2 	"/>
	<polygon class="st109" points="530.4,581.6 516,593.8 522.9,607 	"/>
	<polygon class="st56" points="247.2,537.3 251.2,555 259.2,564.5 	"/>
	<polygon class="st137" points="469.8,92.5 414.8,136.2 458.3,127 	"/>
	<polygon class="st64" points="461.1,714.8 471.1,700.5 449.8,706.7 	"/>
	<polygon class="st66" points="534.8,539 523.8,559.3 534,553.9 	"/>
	<polygon class="st17" points="523.8,559.3 516,593.8 530.4,581.6 	"/>
	<polygon class="st135" points="534,553.9 523.8,559.3 530.4,581.6 	"/>
	<polygon class="st138" points="561.2,350 555.3,331.3 553.5,352.5 	"/>
	<polygon class="st139" points="587.8,298.3 574.3,306.8 576.3,318.2 	"/>
	<polygon class="st84" points="251.2,555 255,587 259.2,564.5 	"/>
	<polygon class="st34" points="551.3,649.1 543.9,645.4 538,679.7 	"/>
	<polygon class="st79" points="538,679.7 543.9,645.4 521.7,677.7 	"/>
	<polygon class="st43" points="571.1,543.9 563.5,532.8 557.3,544.9 	"/>
	<polygon class="st29" points="504.7,732 524.7,706.7 473.7,745 	"/>
	<polygon class="st1" points="562.3,637.3 559.3,607 557,685.7 	"/>
	<polygon class="st140" points="643.8,316 647.3,272.8 631.5,293.8 	"/>
	<polygon class="st14" points="511.2,703.6 511.2,688.8 489.8,714.8 	"/>
	<polygon class="st89" points="528.5,653 530.4,630 517,656.1 	"/>
	<polygon class="st89" points="615,268 588,278.8 603.5,285.3 	"/>
	<polygon class="st141" points="244.3,678 262.3,682.7 230.6,651 	"/>
	<polygon class="st29" points="472.5,711.6 471.1,700.5 461.1,714.8 	"/>
	<polygon class="st61" points="596.3,460.5 575.5,444.3 588.5,471 	"/>
	<polygon class="st109" points="230.6,651 262.3,682.7 245.3,634.5 	"/>
	<polygon class="st142" points="631.5,245.5 588,278.8 615,268 	"/>
	<polygon class="st102" points="283,333.3 298.5,324.3 261.9,329 	"/>
	<polygon class="st40" points="445.5,262.3 372.9,245.5 445.5,286.8 	"/>
	<polygon class="st2" points="458.3,314.8 482.2,322.3 495.7,303.8 	"/>
	<polygon class="st85" points="256.5,471.5 274.3,482.8 266.5,462.5 	"/>
	<polygon class="st60" points="261.9,329 298.5,324.3 318.5,322.3 278.5,303.3 	"/>
	<polygon class="st37" points="470,648.8 471.8,623.3 453.5,631.8 	"/>
	<polygon class="st36" points="241.8,317.2 261.9,329 278.5,303.3 	"/>
	<polygon class="st120" points="482.2,322.3 518.2,312.8 495.7,303.8 	"/>
	<polygon class="st54" points="302.3,272.7 278.5,303.3 355.7,291.4 	"/>
	<polygon class="st32" points="518.2,312.8 527.2,291.4 495.7,303.8 	"/>
	<polygon class="st47" points="510.5,462.7 500.2,452.2 503.8,463.3 	"/>
	<polygon class="st1" points="485,496.2 481.6,483 471.2,497.8 	"/>
	<polygon class="st64" points="512.8,454.3 500.2,452.2 510.5,462.7 	"/>
	<polygon class="st5" points="527.2,291.4 498.7,291.4 495.7,303.8 	"/>
	<polygon class="st43" points="495.7,303.8 498.7,291.4 458.3,314.8 	"/>
	<polygon class="st143" points="220,305.3 230.5,311.5 262,271.3 	"/>
	<polygon class="st31" points="444.3,360.5 446.5,351.6 439.8,362.8 	"/>
	<polygon class="st144" points="516,593.8 493.3,625.5 522.9,607 	"/>
	<polygon class="st145" points="350.4,130 330.5,181.5 368.5,176.6 	"/>
	<polygon class="st96" points="233,234.7 236.8,245.5 242.8,217.8 	"/>
	<polygon class="st12" points="443.1,699.5 456.4,693.9 434.1,682.7 	"/>
	<polygon class="st145" points="456.4,693.9 455,670.8 434.1,682.7 	"/>
	<polygon class="st146" points="269.8,602.7 280.2,627.5 297,611.8 	"/>
	<polygon class="st45" points="408.5,684.4 420.4,675.6 395.9,674.9 	"/>
	<polygon class="st34" points="492,648.1 485.5,639.8 468.9,658.9 	"/>
	<polygon class="st93" points="550.2,441.8 527.2,453.5 545.8,450.5 	"/>
	<polygon class="st88" points="297.8,630.5 306.3,632.5 304,613 	"/>
	<polygon class="st15" points="262.3,491.3 274.3,482.8 256.5,471.5 	"/>
	<polygon class="st100" points="517.8,620.4 485.5,639.8 492,648.1 	"/>
	<polygon class="st102" points="500.8,646.6 517.8,620.4 492,648.1 	"/>
	<polygon class="st101" points="425.3,629.3 420,598.3 409.8,591.5 	"/>
	<polygon class="st7" points="346,656.5 350.5,627 342.3,632 	"/>
	<polygon class="st147" points="342.3,632 350.5,627 353,594.8 	"/>
	<polygon class="st21" points="332.5,623 346,656.5 342.3,632 	"/>
	<polygon class="st43" points="329.5,581.8 332.5,623 335.3,587 	"/>
	<polygon class="st29" points="325.3,587 332.5,623 329.5,581.8 	"/>
	<polygon class="st118" points="353,594.8 350.5,627 359.8,611 	"/>
	<polygon class="st102" points="335.3,587 332.5,623 353,594.8 	"/>
	<polygon class="st38" points="353,594.8 332.5,623 342.3,632 	"/>
	<polygon class="st7" points="350.5,627 361.8,638.5 359.8,611 	"/>
	<polygon class="st31" points="368,663.5 383.5,670.8 393.5,666.5 	"/>
	<polygon class="st97" points="361.8,638.5 368,663.5 379.1,658.5 	"/>
	<polygon class="st123" points="379.1,658.5 368,663.5 393.5,666.5 	"/>
	<polygon class="st1" points="359.8,611 361.8,638.5 371.8,630 	"/>
	<polygon class="st102" points="371.8,630 361.8,638.5 379.1,658.5 	"/>
	<polygon class="st148" points="331,467 312.5,475.3 331,492.5 	"/>
	<polygon class="st22" points="312.5,475.3 314.8,510.3 331,492.5 	"/>
	<polygon class="st41" points="383.5,670.8 402.5,670.8 393.5,666.5 	"/>
	<polygon class="st149" points="362.8,437.3 348.6,435.8 331,467 	"/>
	<polygon class="st150" points="312.5,475.3 331,467 309.8,451.1 	"/>
	<polygon class="st108" points="282.3,462.5 312.5,475.3 309.8,451.1 	"/>
	<polygon class="st126" points="309.8,451.1 331,467 348.6,435.8 	"/>
	<polygon class="st68" points="374.5,416.3 348.6,435.8 362.8,437.3 	"/>
	<polygon class="st71" points="331,492.5 314.8,510.3 332,520.7 	"/>
	<polygon class="st20" points="314.8,565.8 325.3,587 322.9,572.5 	"/>
	<polygon class="st151" points="314.8,537.3 314.8,565.8 322.9,572.5 	"/>
	<polygon class="st26" points="322.9,572.5 325.3,587 329.5,581.8 	"/>
	<polygon class="st93" points="332.5,543.5 314.8,537.3 322.9,572.5 	"/>
	<polygon class="st143" points="314.8,510.3 312.5,520.7 332,520.7 	"/>
	<polygon class="st90" points="312.5,520.7 314.8,537.3 332,520.7 	"/>
	<polygon class="st91" points="332,520.7 314.8,537.3 332.5,543.5 	"/>
	<polygon class="st122" points="444.3,591 455.5,572.1 437,584.5 	"/>
	<polygon class="st137" points="460.5,559.4 460.5,527 449.5,551.3 	"/>
	<polygon class="st40" points="455.5,572.1 460.5,559.4 449.5,551.3 	"/>
	<polygon class="st145" points="437,584.5 455.5,572.1 434.8,548 	"/>
	<polygon class="st39" points="434.8,548 455.5,572.1 449.5,551.3 	"/>
	<polygon class="st152" points="459.5,623.3 457.5,584 444.3,591 	"/>
	<polygon class="st1" points="457.5,584 455.5,572.1 444.3,591 	"/>
	<polygon class="st58" points="372.8,432.5 374.5,416.3 362.8,437.3 	"/>
	<polygon class="st134" points="433.8,461 437.5,445.3 424.8,446.5 	"/>
	<polygon class="st7" points="393.5,666.5 402.5,670.8 397.1,637.3 	"/>
	<polygon class="st30" points="468.8,484.5 481.6,483 482.2,458.2 	"/>
	<polygon class="st100" points="466.3,591 457.5,584 459.5,623.3 	"/>
	<polygon class="st119" points="464.3,514.5 471.2,497.8 449.5,516 	"/>
	<polygon class="st65" points="460.5,527 464.3,514.5 449.5,516 	"/>
	<polygon class="st153" points="449.5,551.3 460.5,527 449.5,516 	"/>
	<polygon class="st142" points="471.2,497.8 481.6,483 468.8,484.5 	"/>
	<polygon class="st33" points="410.8,665.5 424.8,668.8 413.8,642.8 	"/>
	<polygon class="st83" points="413.8,642.8 424.8,668.8 425.3,629.3 	"/>
	<polygon class="st97" points="425.3,629.3 436.8,635.3 420,598.3 	"/>
	<polygon class="st18" points="424.8,668.8 436.8,635.3 425.3,629.3 	"/>
	<polygon class="st79" points="471.8,623.3 466.3,591 459.5,623.3 	"/>
	<polygon class="st41" points="413.8,642.8 402.5,670.8 410.8,665.5 	"/>
	<polygon class="st80" points="402.5,670.8 424.8,668.8 410.8,665.5 	"/>
	<polygon class="st123" points="397.1,637.3 402.5,670.8 413.8,642.8 	"/>
	<polygon class="st1" points="420,598.3 436.8,635.3 437,584.5 	"/>
	<polygon class="st38" points="453.5,631.8 471.8,623.3 459.5,623.3 	"/>
	<polygon class="st5" points="444.3,591 445.3,626.8 459.5,623.3 	"/>
	<polygon class="st7" points="445.3,626.8 453.5,631.8 459.5,623.3 	"/>
	<polygon class="st63" points="436.8,635.3 445.3,626.8 437,584.5 	"/>
	<polygon class="st61" points="437,584.5 445.3,626.8 444.3,591 	"/>
	<polygon class="st40" points="449.5,516 471.2,497.8 468.8,484.5 	"/>
	<polygon class="st38" points="397.1,596.9 397.1,637.3 409.8,591.5 	"/>
	<polygon class="st76" points="329.5,581.8 335.3,587 345,583.4 	"/>
	<polygon class="st152" points="353,594.8 359.8,611 364.3,588.5 	"/>
	<polygon class="st66" points="343,530.8 346,518.3 332.5,543.5 335.3,569.1 	"/>
	<polygon class="st154" points="468.9,658.9 455,670.8 492,648.1 	"/>
	<polygon class="st154" points="335.3,569.1 329.5,581.8 345,583.4 	"/>
	<polygon class="st155" points="322.9,572.5 329.5,581.8 335.3,569.1 	"/>
	<polygon class="st10" points="345,583.4 353,594.8 364.3,588.5 	"/>
	<polygon class="st83" points="379.1,658.5 393.5,666.5 382.5,637.3 	"/>
	<polygon class="st79" points="393.5,666.5 397.1,637.3 382.5,637.3 	"/>
	<polygon class="st130" points="382.5,637.3 397.1,637.3 397.1,596.9 	"/>
	<polygon class="st6" points="371.8,630 379.1,658.5 382.5,637.3 	"/>
	<polygon class="st48" points="371.8,598.3 364.3,588.5 371.8,630 382.5,637.3 	"/>
	<polygon class="st95" points="359.8,611 371.8,630 364.3,588.5 	"/>
	<polygon class="st82" points="335.3,587 353,594.8 345,583.4 	"/>
	<polygon class="st34" points="412.9,405 400,403 405.8,407.7 	"/>
	<polygon class="st153" points="400,403 391.4,403 398.3,409.3 	"/>
	<polygon class="st39" points="437.5,445.3 431.4,431.3 418.5,432.5 	"/>
	<polygon class="st99" points="424.8,446.5 437.5,445.3 418.5,432.5 	"/>
	<polygon class="st5" points="431.4,431.3 410.5,427.4 418.5,432.5 	"/>
	<polygon class="st53" points="372.8,432.5 362.8,437.3 370.7,454.3 	"/>
	<polygon class="st90" points="352,497.3 331,492.5 369.3,528.5 	"/>
	<polygon class="st156" points="369.3,528.5 331,492.5 346,518.3 	"/>
	<polygon class="st157" points="331,492.5 332,520.7 346,518.3 	"/>
	<polygon class="st57" points="332,520.7 332.5,543.5 346,518.3 	"/>
	<polygon class="st105" points="370.7,454.3 362.8,437.3 365.8,452.2 	"/>
	<polygon class="st158" points="362.8,437.3 331,492.5 356.5,480.3 	"/>
	<polygon class="st67" points="356.5,480.3 331,492.5 352,497.3 	"/>
	<polygon class="st58" points="387,368.3 381.3,392.3 393.3,383.8 	"/>
	<polygon class="st40" points="412.9,405 414.8,388.3 400,403 	"/>
	<polygon class="st46" points="400,403 414.8,388.3 393.3,383.8 	"/>
	<polygon class="st46" points="420,407.7 414.8,388.3 412.9,405 	"/>
	<polygon class="st63" points="414.8,388.3 397.1,360.5 393.3,383.8 	"/>
	<polygon class="st48" points="430.3,410.2 420,407.7 431.4,431.3 	"/>
	<polygon class="st100" points="431.4,431.3 420,407.7 410.5,427.4 	"/>
	<polygon class="st95" points="410.5,427.4 420,407.7 412.9,405 	"/>
	<polygon class="st46" points="397.1,360.5 387,368.3 393.3,383.8 	"/>
	<polygon class="st53" points="381.3,392.3 374.5,416.3 386.4,409.3 	"/>
	<polygon class="st140" points="386.4,409.3 374.5,416.3 387,418.3 	"/>
	<polygon class="st7" points="391.4,403 381.3,392.3 386.4,409.3 	"/>
	<polygon class="st38" points="431.4,431.3 437.5,445.3 442.8,427.4 	"/>
	<polygon class="st6" points="430.3,410.2 431.4,431.3 442.8,427.4 	"/>
	<polygon class="st12" points="387,418.3 374.5,416.3 372.8,432.5 	"/>
	<polygon class="st79" points="393.3,383.8 381.3,392.3 391.4,403 	"/>
	<polygon class="st120" points="397.1,637.3 413.8,642.8 409.8,591.5 	"/>
	<polygon class="st119" points="424.8,544.9 434.8,548 433,509 	"/>
	<polygon class="st159" points="437,584.5 434.8,548 423.3,565.8 	"/>
	<polygon class="st1" points="423.3,565.8 434.8,548 424.8,544.9 	"/>
	<polygon class="st58" points="420,598.3 437,584.5 409.8,591.5 	"/>
	<polygon class="st64" points="481.6,483 507.5,473 482.2,458.2 	"/>
	<polygon class="st95" points="413.8,642.8 425.3,629.3 409.8,591.5 	"/>
	<polygon class="st39" points="468.8,484.5 458.7,455 447.5,474 	"/>
	<polygon class="st35" points="447.5,474 458.7,455 433.8,461 	"/>
	<polygon class="st100" points="458.7,455 442.8,427.4 437.5,445.3 	"/>
	<polygon class="st2" points="434.8,548 449.5,516 433,509 	"/>
	<polygon class="st1" points="433.8,461 458.7,455 437.5,445.3 	"/>
	<polygon class="st142" points="449.5,516 468.8,484.5 447.5,474 	"/>
	<polygon class="st63" points="433,509 449.5,516 447.5,474 	"/>
	<polygon class="st61" points="414.8,136.2 431,56 372.9,71.5 	"/>
	<polygon class="st29" points="542.6,547.1 557.3,544.9 547.3,534.5 	"/>
	<polygon class="st41" points="539.4,566.9 557.3,544.9 542.6,547.1 	"/>
	<polygon class="st31" points="557.3,544.9 563.5,532.8 547.3,534.5 	"/>
	<polygon class="st80" points="455,670.8 474.5,673.1 492,648.1 	"/>
	<polygon class="st127" points="563.5,532.8 561,528.5 547.3,534.5 	"/>
	<polygon class="st18" points="545.8,565.5 557.3,544.9 539.4,566.9 	"/>
	<polygon class="st46" points="467.4,732 489.8,714.8 472.5,711.6 	"/>
	<polygon class="st160" points="540.3,580.3 545.8,565.5 539.4,566.9 	"/>
	<polygon class="st95" points="555.2,502.8 558.7,511.5 564.5,503.7 559.7,489.2 	"/>
	<polygon class="st102" points="559.7,489.2 564.5,503.7 572.3,484.5 	"/>
	<polygon class="st95" points="553.4,520.5 558.7,511.5 555.2,502.8 	"/>
	<polygon class="st60" points="561,528.5 558.7,511.5 553.4,520.5 	"/>
	<polygon class="st107" points="526.3,530.3 561,528.5 545.8,524.5 	"/>
	<polygon class="st51" points="545.8,524.5 561,528.5 553.4,520.5 	"/>
	<polygon class="st161" points="547.3,534.5 561,528.5 526.3,530.3 	"/>
	<polygon class="st43" points="538.6,630 540.3,601.1 530.4,630 	"/>
	<polygon class="st51" points="479.8,692.2 511.2,688.8 495,679.7 	"/>
	<polygon class="st14" points="507.6,666.9 521.7,677.7 517,656.1 	"/>
	<polygon class="st153" points="511.2,688.8 521.7,677.7 507.6,666.9 	"/>
	<polygon class="st122" points="495,679.7 511.2,688.8 507.6,666.9 	"/>
	<polygon class="st138" points="472.5,711.6 489.8,714.8 471.1,700.5 	"/>
	<polygon class="st18" points="535.3,607 540.3,601.1 534.8,588.6 	"/>
	<polygon class="st36" points="471.1,700.5 489.8,714.8 479.8,692.2 	"/>
	<polygon class="st152" points="543.9,645.4 538.6,630 530.4,630 	"/>
	<polygon class="st19" points="564.5,503.7 590.5,491.6 572.3,484.5 	"/>
	<polygon class="st97" points="530.4,630 540.3,601.1 535.3,607 	"/>
	<polygon class="st39" points="517,656.1 521.7,677.7 528.5,653 	"/>
	<polygon class="st33" points="528.5,653 543.9,645.4 530.4,630 	"/>
	<polygon class="st120" points="521.7,677.7 543.9,645.4 528.5,653 	"/>
	<polygon class="st2" points="534.8,588.6 540.3,601.1 540.3,580.3 	"/>
	<polygon class="st15" points="582.8,344.6 612.5,290.7 580,332.2 	"/>
	<polygon class="st97" points="603.5,285.3 612.5,290.7 615,268 	"/>
	<polygon class="st34" points="612.5,290.7 631.5,293.8 615,268 	"/>
	<polygon class="st14" points="569.8,359.7 581.4,356.8 582.8,344.6 	"/>
	<polygon class="st97" points="598.2,344 612.5,290.7 582.8,344.6 	"/>
	<polygon class="st63" points="615,268 631.5,293.8 631.5,245.5 	"/>
	<polygon class="st30" points="572.3,484.5 590.5,491.6 588.5,471 	"/>
	<polygon class="st51" points="595.5,246.5 631.3,168 595.5,213.5 	"/>
	<polygon class="st100" points="631.3,168 613,137 595.5,213.5 	"/>
	<polygon class="st28" points="631.5,293.8 647.3,272.8 631.5,245.5 	"/>
	<polygon class="st93" points="573.3,367.7 581.4,356.8 569.8,359.7 	"/>
	<polygon class="st29" points="647.3,272.8 645.5,238.8 631.5,245.5 	"/>
	<polygon class="st131" points="645.5,238.8 641,202.3 631.5,245.5 	"/>
	<polygon class="st8" points="581.4,356.8 598.2,344 582.8,344.6 	"/>
	<polygon class="st99" points="596.3,460.5 594.3,441.8 575.5,444.3 	"/>
	<polygon class="st101" points="575.5,444.3 594.3,441.8 595,430.5 	"/>
	<polygon class="st152" points="605.3,449 594.3,441.8 596.3,460.5 	"/>
	<polygon class="st79" points="590.5,491.6 607.7,476.8 596.3,460.5 	"/>
	<polygon class="st44" points="607.7,476.8 605.3,449 596.3,460.5 	"/>
	<polygon class="st48" points="588.5,471 590.5,491.6 596.3,460.5 	"/>
	<polygon class="st99" points="594.3,441.8 608.5,428.2 595,430.5 	"/>
	<polygon class="st33" points="586.5,378 581.4,356.8 573.3,367.7 	"/>
	<polygon class="st34" points="595,430.5 606.7,409.3 585.4,413.8 	"/>
	<polygon class="st32" points="585.2,388 586.5,378 573.3,367.7 	"/>
	<polygon class="st32" points="578.8,398.3 598.2,385.5 585.2,388 	"/>
	<polygon class="st89" points="598.2,385.5 586.5,378 585.2,388 	"/>
	<polygon class="st37" points="585.4,413.8 598.2,385.5 578.8,398.3 	"/>
	<polygon class="st130" points="606.7,409.3 598.2,385.5 585.4,413.8 	"/>
	<polygon class="st97" points="641,202.3 631.3,168 595.5,246.5 	"/>
	<polygon class="st110" points="240,498.5 249.3,528.8 256.3,516 	"/>
	<polygon class="st162" points="212.3,435.8 210.5,462.5 229,460.3 	"/>
	<polygon class="st121" points="256.3,516 249.3,528.8 261,523 	"/>
	<polygon class="st87" points="225.8,493.3 249.3,528.8 240,498.5 	"/>
	<polygon class="st163" points="229,460.3 210.5,462.5 225.8,493.3 	"/>
	<polygon class="st25" points="220,516 249.3,528.8 225.8,493.3 	"/>
	<polygon class="st107" points="210.5,462.5 220,516 225.8,493.3 	"/>
	<polygon class="st103" points="261,523 249.3,528.8 267,548.8 	"/>
	<polygon class="st164" points="249.3,528.8 242,536 247.2,537.3 	"/>
	<polygon class="st124" points="247.2,537.3 244.5,570 251.2,555 	"/>
	<polygon class="st165" points="270.1,570 249.3,528.8 259.2,564.5 	"/>
	<polygon class="st112" points="259.2,564.5 249.3,528.8 247.2,537.3 	"/>
	<polygon class="st166" points="267,548.8 249.3,528.8 270.1,570 	"/>
	<polygon class="st167" points="175.7,340 193,388.3 208,348.3 	"/>
	<polygon class="st168" points="212.7,262.3 180,262.3 205.3,306 	"/>
	<polygon class="st169" points="180,262.3 175.7,340 205.3,306 	"/>
	<polygon class="st52" points="205.3,306 175.7,340 208,348.3 	"/>
	<polygon class="st170" points="199.7,177.7 193,234.7 205.3,232.7 	"/>
	<polygon class="st103" points="193,234.7 180,262.3 212.7,262.3 	"/>
	<polygon class="st171" points="251.2,555 244.5,570 255,587 	"/>
	<polygon class="st172" points="205.3,232.7 193,234.7 212.7,262.3 	"/>
	<polygon class="st173" points="234.8,445 212.3,435.8 229,460.3 	"/>
	<polygon class="st174" points="216,410 212.3,435.8 222,432.5 	"/>
	<polygon class="st175" points="222,432.5 212.3,435.8 234.8,445 	"/>
	<polygon class="st176" points="204.3,418.3 212.3,435.8 216,410 	"/>
	<polygon class="st168" points="193,388.3 204.3,418.3 216,383.8 	"/>
	<polygon class="st172" points="208,348.3 193,388.3 216,383.8 	"/>
	<polygon class="st175" points="216,383.8 204.3,418.3 216,410 	"/>
	<polygon class="st177" points="242,536 244.5,570 247.2,537.3 	"/>
	<polygon class="st65" points="403.7,716.6 414.7,750.7 408.5,715.6 	"/>
	<polygon class="st119" points="408.5,715.6 414.7,750.7 422,738 	"/>
	<polygon class="st39" points="379.1,728.5 414.7,750.7 403.7,716.6 	"/>
	<polygon class="st145" points="414.7,750.7 442.9,740.9 422,738 	"/>
	<polygon class="st122" points="328.9,707.3 335.7,738.7 379.1,728.5 	"/>
	<polygon class="st35" points="369.3,758.3 414.7,750.7 379.1,728.5 	"/>
	<polygon class="st37" points="335.7,738.7 369.3,758.3 379.1,728.5 	"/>
	<polygon class="st99" points="429.9,734.6 446.8,724.5 432.8,707.9 	"/>
	<polygon class="st34" points="449.8,706.7 446.8,724.5 461.1,714.8 	"/>
	<polygon class="st65" points="446.8,724.5 467.4,732 461.1,714.8 	"/>
	<polygon class="st14" points="432.8,707.9 446.8,724.5 449.8,706.7 	"/>
	<polygon class="st137" points="422,738 442.9,740.9 429.9,734.6 	"/>
	<polygon class="st41" points="315.9,704 335.7,738.7 328.9,707.3 	"/>
	<polygon class="st61" points="442.9,740.9 446.8,724.5 429.9,734.6 	"/>
	<polygon class="st17" points="262.3,682.7 275.3,684 259.2,637.8 	"/>
	<polygon class="st157" points="318.3,696.1 315.9,704 328.9,707.3 	"/>
	<polygon class="st178" points="262.3,612.2 245.3,634.5 259.2,637.8 	"/>
	<polygon class="st157" points="245.3,634.5 262.3,682.7 259.2,637.8 	"/>
	<polygon class="st25" points="229.7,583.4 245.3,634.5 246.4,602 	"/>
	<polygon class="st91" points="262.3,612.2 244.5,570 246.4,602 	"/>
	<polygon class="st94" points="255,587 244.5,570 262.3,612.2 	"/>
	<polygon class="st179" points="244.5,570 229.7,583.4 246.4,602 	"/>
	<polygon class="st107" points="246.4,602 245.3,634.5 262.3,612.2 	"/>
	<polygon class="st26" points="259.2,637.8 275.3,684 270.5,636.3 	"/>
	<polygon class="st125" points="299.7,700 315.9,704 293,669.2 	"/>
	<polygon class="st179" points="293,669.2 315.9,704 301.9,654.9 	"/>
	<polygon class="st121" points="281.7,661.2 299.7,700 293,669.2 	"/>
	<polygon class="st180" points="270.5,636.3 275.3,684 281.7,661.2 	"/>
	<polygon class="st25" points="275.3,684 299.7,700 281.7,661.2 	"/>
	<polygon class="st115" points="625.5,400 638.3,363.8 606.7,409.3 	"/>
	<polygon class="st34" points="442.9,740.9 473.7,745 446.8,724.5 	"/>
	<polygon class="st100" points="446.8,724.5 473.7,745 467.4,732 	"/>
	<polygon class="st138" points="489.8,714.8 473.7,745 511.2,703.6 	"/>
	<polygon class="st33" points="473.7,745 524.7,706.7 511.2,703.6 	"/>
	<polygon class="st30" points="543.9,645.4 559.3,607 538.6,630 	"/>
	<polygon class="st63" points="414.7,750.7 473.7,745 442.9,740.9 	"/>
	<polygon class="st2" points="428.3,754 473.7,745 414.7,750.7 	"/>
	<polygon class="st63" points="557,685.7 559.3,607 551.3,649.1 	"/>
	<polygon class="st80" points="511.2,703.6 524.7,706.7 511.2,688.8 	"/>
	<polygon class="st60" points="538,679.7 557,685.7 551.3,649.1 	"/>
	<polygon class="st142" points="551.3,649.1 559.3,607 543.9,645.4 	"/>
	<polygon class="st131" points="403.7,760.7 437.7,765 428.3,754 	"/>
	<polygon class="st33" points="511.2,688.8 524.7,706.7 521.7,677.7 	"/>
	<polygon class="st29" points="524.7,706.7 557,685.7 538,679.7 	"/>
	<polygon class="st6" points="521.7,677.7 524.7,706.7 538,679.7 	"/>
	<polygon class="st18" points="437.7,765 473.7,745 428.3,754 	"/>
	<polygon class="st181" points="244.3,678 260.3,692.7 262.3,682.7 	"/>
	<polygon class="st135" points="262.3,682.7 260.3,692.7 275.3,684 	"/>
	<polygon class="st88" points="260.3,692.7 299,732 299.7,700 	"/>
	<polygon class="st157" points="275.3,684 260.3,692.7 299.7,700 	"/>
	<polygon class="st182" points="236.7,690.3 260.3,692.7 244.3,678 	"/>
	<polygon class="st178" points="230.6,651 215.7,653.7 244.3,678 	"/>
	<polygon class="st80" points="414.7,750.7 403.7,760.7 428.3,754 	"/>
	<polygon class="st136" points="215.7,653.7 236.7,690.3 244.3,678 	"/>
	<polygon class="st133" points="364.3,768.3 403.7,760.7 369.3,758.3 	"/>
	<polygon class="st183" points="335.7,738.7 364.3,768.3 369.3,758.3 	"/>
	<polygon class="st89" points="369.3,758.3 403.7,760.7 414.7,750.7 	"/>
	<polygon class="st76" points="299.7,700 299,732 315.9,704 	"/>
	<polygon class="st93" points="225,622.7 215.7,653.7 230.6,651 	"/>
	<polygon class="st154" points="315.9,704 299,732 335.7,738.7 	"/>
	<polygon class="st8" points="299,732 331.7,750.7 364.3,768.3 335.7,738.7 	"/>
	<polygon class="st184" points="222.5,181.5 199.7,177.7 205.3,232.7 	"/>
	<polygon class="st160" points="638.3,363.8 634,342.3 598.2,385.5 	"/>
	<polygon class="st81" points="606.7,409.3 638.3,363.8 598.2,385.5 	"/>
	<polygon class="st9" points="608.5,428.2 625.5,400 606.7,409.3 	"/>
	<polygon class="st153" points="605.3,449 613.5,439.8 594.3,441.8 	"/>
	<polygon class="st31" points="613.5,439.8 620.5,422.8 608.5,428.2 	"/>
	<polygon class="st35" points="607.7,476.8 613.5,439.8 605.3,449 	"/>
	<polygon class="st115" points="620.5,422.8 625.5,400 608.5,428.2 	"/>
	<polygon class="st2" points="598.2,344 634,342.3 612.5,290.7 	"/>
	<polygon class="st76" points="598.2,385.5 634,342.3 586.5,378 	"/>
	<polygon class="st89" points="631.5,293.8 634,342.3 643.8,316 	"/>
	<polygon class="st142" points="612.5,290.7 634,342.3 631.5,293.8 	"/>
	<polygon class="st53" points="586.5,378 634,342.3 581.4,356.8 	"/>
	<polygon class="st44" points="581.4,356.8 634,342.3 598.2,344 	"/>
	<polygon class="st100" points="545.8,565.5 568.5,569.3 557.3,544.9 	"/>
	<polygon class="st64" points="568.5,569.3 583.3,523.3 571.1,543.9 	"/>
	<polygon class="st53" points="571.1,543.9 583.3,523.3 563.5,532.8 	"/>
	<polygon class="st1" points="557.3,544.9 568.5,569.3 571.1,543.9 	"/>
	<polygon class="st60" points="538.6,630 559.3,607 540.3,601.1 	"/>
	<polygon class="st107" points="563.5,532.8 583.3,523.3 561,528.5 	"/>
	<polygon class="st1" points="559.3,607 568.5,569.3 540.3,601.1 	"/>
	<polygon class="st120" points="540.3,601.1 568.5,569.3 545.8,565.5 	"/>
	<polygon class="st46" points="564.5,503.7 583.3,523.3 590.5,491.6 	"/>
	<polygon class="st30" points="594.3,517.3 614.8,496.8 590.5,491.6 	"/>
	<polygon class="st38" points="561,528.5 583.3,523.3 558.7,511.5 	"/>
	<polygon class="st89" points="583.3,523.3 594.3,517.3 590.5,491.6 	"/>
	<polygon class="st101" points="614.8,496.8 622.5,466.8 607.7,476.8 	"/>
	<polygon class="st34" points="622.5,466.8 613.5,439.8 607.7,476.8 	"/>
	<polygon class="st18" points="558.7,511.5 583.3,523.3 564.5,503.7 	"/>
	<polygon class="st172" points="199.7,177.7 175,161.7 193,234.7 	"/>
	<polygon class="st167" points="279,58.3 244.5,76.5 295,59.7 	"/>
	<polygon class="st124" points="295,59.7 244.5,76.5 260.3,84 	"/>
	<polygon class="st181" points="260.3,84 244.5,76.5 249.2,111 	"/>
	<polygon class="st85" points="330,56 304.8,45.3 306.8,64.8 	"/>
	<polygon class="st106" points="244.5,76.5 232,94.8 249.2,111 	"/>
	<polygon class="st127" points="304.8,45.3 279,58.3 295,59.7 	"/>
	<polygon class="st23" points="306.8,64.8 304.8,45.3 295,59.7 	"/>
	<polygon class="st185" points="209.8,110 195,130 216.5,140.7 	"/>
	<polygon class="st24" points="344.3,45.3 304.8,45.3 330,56 	"/>
	<polygon class="st127" points="224,97.8 209.8,110 216.5,140.7 	"/>
	<polygon class="st127" points="216.5,140.7 195,130 206.5,150.8 	"/>
	<polygon class="st181" points="233,116.8 224,97.8 216.5,140.7 	"/>
	<polygon class="st161" points="232,94.8 224,97.8 249.2,111 	"/>
	<polygon class="st127" points="249.2,111 224,97.8 233,116.8 	"/>
	<polygon class="st39" points="431,56 460.5,36 391.3,50.5 	"/>
	<polygon class="st100" points="588.5,111 557.8,89 547.8,120 	"/>
	<polygon class="st61" points="530.3,66.8 500.3,44.8 481.6,73 	"/>
	<polygon class="st142" points="557.8,89 530.3,66.8 530.3,92.5 	"/>
	<polygon class="st63" points="547.8,120 557.8,89 530.3,92.5 	"/>
	<polygon class="st120" points="613,137 588.5,111 582.8,172.5 	"/>
	<polygon class="st39" points="582.8,172.5 588.5,111 569,150.8 	"/>
	<polygon class="st119" points="569,150.8 588.5,111 547.8,120 	"/>
	<polygon class="st14" points="460.5,36 421.3,31.8 379.3,28.3 391.3,50.5 	"/>
	<polygon class="st145" points="481.6,73 500.3,44.8 431,56 	"/>
	<polygon class="st129" points="336.5,34.5 304.8,45.3 344.3,45.3 	"/>
	<polygon class="st155" points="379.3,28.3 336.5,34.5 344.3,45.3 	"/>
	<polygon class="st5" points="391.3,50.5 379.3,28.3 344.3,45.3 	"/>
	<polygon class="st100" points="500.3,44.8 460.5,36 431,56 	"/>
	<polygon class="st173" points="206.5,150.8 195,130 199.7,177.7 	"/>
	<polygon class="st186" points="245.3,634.5 225,622.7 230.6,651 	"/>
	<polygon class="st52" points="202.8,478.3 183.3,430.3 177.8,471.5 	"/>
	<polygon class="st67" points="185.3,497 212,520.7 202.8,478.3 	"/>
	<polygon class="st52" points="202.8,478.3 212,520.7 220,516 	"/>
	<polygon class="st177" points="220,516 212,520.7 249.3,528.8 	"/>
	<polygon class="st161" points="183.3,430.3 166.3,452 177.8,471.5 	"/>
	<polygon class="st187" points="166.3,452 171,476 177.8,471.5 	"/>
	<polygon class="st112" points="171,476 185.3,497 177.8,471.5 	"/>
	<polygon class="st56" points="177.8,471.5 185.3,497 202.8,478.3 	"/>
	<polygon class="st117" points="244.5,570 221.3,571 229.7,583.4 	"/>
	<polygon class="st182" points="221.3,571 225,622.7 229.7,583.4 	"/>
	<polygon class="st117" points="229.7,583.4 225,622.7 245.3,634.5 	"/>
	<polygon class="st135" points="242,536 221.3,571 244.5,570 	"/>
	<polygon class="st184" points="212,520.7 221.3,571 242,536 	"/>
	<polygon class="st168" points="249.3,528.8 212,520.7 242,536 	"/>
	<polygon class="st46" points="595.5,213.5 613,137 582.8,172.5 	"/>
	<polygon class="st124" points="157,197 147,247.7 180,262.3 	"/>
	<polygon class="st173" points="210.5,462.5 183.3,430.3 202.8,478.3 	"/>
	<polygon class="st124" points="180,262.3 149.7,296.3 175.7,340 	"/>
	<polygon class="st94" points="175,161.7 157,197 193,234.7 	"/>
	<polygon class="st188" points="195,130 175,161.7 199.7,177.7 	"/>
	<polygon class="st92" points="149.7,296.3 157.3,353.3 175.7,340 	"/>
	<polygon class="st67" points="193,234.7 157,197 180,262.3 	"/>
	<polygon class="st179" points="147,247.7 149.7,296.3 180,262.3 	"/>
	<polygon class="st169" points="204.3,418.3 183.3,430.3 212.3,435.8 	"/>
	<polygon class="st136" points="175.7,340 157.3,353.3 193,388.3 	"/>
	<polygon class="st189" points="193,388.3 183.3,430.3 204.3,418.3 	"/>
	<polygon class="st190" points="212.3,435.8 183.3,430.3 210.5,462.5 	"/>
	<polygon class="st103" points="173.7,385 183.3,430.3 193,388.3 	"/>
	<polygon class="st68" points="157.3,353.3 173.7,385 193,388.3 	"/>
	<polygon class="st191" points="540.3,601.1 545.8,565.5 540.3,580.3 	"/>
	<polygon class="st155" points="221.2,337 208,348.3 234.8,340 	"/>
	<polygon class="st17" points="262,271.3 212.7,262.3 220,305.3 	"/>
	<polygon class="st124" points="230.5,311.5 208,348.3 221.2,337 	"/>
	<polygon class="st164" points="205.3,306 208,348.3 220,305.3 	"/>
	<polygon class="st192" points="232.8,418.8 222,432.5 241.8,436 	"/>
	<polygon class="st170" points="212.7,262.3 205.3,306 220,305.3 	"/>
	<polygon class="st90" points="252.8,342.8 208,348.3 236.8,351.3 	"/>
	<polygon class="st34" points="333,76 311.6,111 350.4,130 	"/>
	<polygon class="st45" points="216,383.8 216,410 232.8,418.8 	"/>
	<polygon class="st43" points="216,410 222,432.5 232.8,418.8 	"/>
	<polygon class="st44" points="228,385.2 216,383.8 232.8,418.8 	"/>
	<polygon class="st146" points="236.8,351.3 208,348.3 228.3,361.8 	"/>
	<polygon class="st53" points="208,348.3 216,383.8 228.3,361.8 	"/>
	<polygon class="st80" points="228.3,361.8 216,383.8 228,385.2 	"/>
	<polygon class="st113" points="220,305.3 208,348.3 230.5,311.5 	"/>
	<polygon class="st95" points="286,213.5 311.6,111 272.1,152 	"/>
	<polygon class="st83" points="311.6,111 259.8,146.3 272.1,152 	"/>
	<polygon class="st47" points="272.1,152 259.8,146.3 245.3,166.8 	"/>
	<polygon class="st76" points="259.8,146.3 228.5,159.5 245.3,166.8 	"/>
	<polygon class="st99" points="330.5,181.5 311.6,111 286,213.5 	"/>
	<polygon class="st142" points="350.4,130 311.6,111 330.5,181.5 	"/>
	<polygon class="st135" points="233,234.7 222.5,181.5 218.5,223 	"/>
	<polygon class="st84" points="236.8,245.5 212.7,262.3 262,271.3 	"/>
	<polygon class="st181" points="205.3,232.7 212.7,262.3 233,234.7 	"/>
	<polygon class="st193" points="245.3,166.8 228.5,159.5 234.8,187.3 	"/>
	<polygon class="st194" points="242.8,217.8 222.5,181.5 233,234.7 	"/>
	<polygon class="st105" points="228.5,159.5 222.5,181.5 234.8,187.3 	"/>
	<polygon class="st151" points="234.8,187.3 222.5,181.5 242.8,217.8 	"/>
	<polygon class="st23" points="234.8,340 208,348.3 252.8,342.8 	"/>
	<polygon class="st96" points="262.3,612.2 270.5,636.3 280.2,627.5 	"/>
	<polygon class="st195" points="270.5,636.3 281.7,661.2 293,669.2 280.2,627.5 	"/>
	<polygon class="st135" points="293,669.2 301.9,654.9 292.3,642.3 	"/>
	<polygon class="st4" points="259.2,564.5 255,587 269.8,602.7 	"/>
	<polygon class="st155" points="269.8,602.7 262.3,612.2 280.2,627.5 	"/>
	<polygon class="st160" points="255,587 262.3,612.2 269.8,602.7 	"/>
	<polygon class="st93" points="280.2,627.5 293,669.2 292.3,642.3 	"/>
	<polygon class="st150" points="318.3,696.1 328.9,707.3 336,686.4 	"/>
	<polygon class="st166" points="206.5,150.8 199.7,177.7 222.5,181.5 	"/>
	<polygon class="st4" points="336,686.4 328.9,707.3 353.8,682.7 	"/>
	<polygon class="st196" points="326,659.5 318.3,696.1 336,686.4 	"/>
	<polygon class="st124" points="315,638.3 301.9,654.9 319.3,647.3 	"/>
	<polygon class="st23" points="301.9,654.9 318.3,696.1 326,659.5 	"/>
	<polygon class="st157" points="262,450.5 234.8,445 238.8,469.8 	"/>
	<polygon class="st161" points="270.1,570 259.2,564.5 269.8,602.7 	"/>
	<polygon class="st197" points="225.8,493.3 240,498.5 238.8,469.8 	"/>
	<polygon class="st30" points="222,432.5 234.8,445 241.8,436 	"/>
	<polygon class="st10" points="238.8,469.8 240,498.5 249.3,490.5 	"/>
	<polygon class="st54" points="241.8,436 234.8,445 266.5,441 	"/>
	<polygon class="st192" points="266.5,441 234.8,445 262,450.5 	"/>
	<polygon class="st91" points="234.8,445 229,460.3 238.8,469.8 	"/>
	<polygon class="st116" points="297,611.8 270.1,570 269.8,602.7 	"/>
	<polygon class="st29" points="249.3,490.5 240,498.5 269.8,505.8 	"/>
	<polygon class="st198" points="256.3,516 261,523 281.5,523 	"/>
	<polygon class="st19" points="269.8,505.8 256.3,516 281.5,523 	"/>
	<polygon class="st41" points="240,498.5 256.3,516 269.8,505.8 	"/>
	<polygon class="st145" points="485.5,277.4 530.3,227.8 481.3,245.5 	"/>
	<polygon class="st60" points="468.7,555.7 489.8,558.8 484,538.5 	"/>
	<polygon class="st191" points="489.8,558.8 499.5,539 484,538.5 	"/>
	<polygon class="st35" points="474,583.8 489.8,558.8 468.7,555.7 	"/>
	<polygon class="st191" points="492,587.5 494.5,581.5 483.5,581.8 	"/>
	<polygon class="st192" points="483.5,581.8 489.8,558.8 474,583.8 	"/>
	<polygon class="st29" points="484,538.5 499.5,539 480.7,512.3 	"/>
	<polygon class="st118" points="494.5,581.5 489.8,558.8 483.5,581.8 	"/>
	<path class="st46" d="M528.3,496.8c0-0.9,17.5-7.6,17.5-7.6l-26.9-5.3L528.3,496.8z"/>
	<polygon class="st64" points="495.8,596.8 494.5,581.5 492,587.5 	"/>
	<polygon class="st6" points="518.9,483.8 545.8,489.2 521.5,471.8 	"/>
	<polygon class="st86" points="507.5,499.2 528.3,496.8 518.9,483.8 	"/>
	<polygon class="st28" points="497.7,506.8 515.5,516.8 507.5,499.2 	"/>
	<polygon class="st199" points="515.5,516.8 528.3,496.8 507.5,499.2 	"/>
	<polygon class="st102" points="490.8,615.3 495.8,596.8 492,587.5 	"/>
	<polygon class="st95" points="507,652.6 521.7,623.6 500.8,646.6 	"/>
	<polygon class="st38" points="500.8,646.6 521.7,623.6 517.8,620.4 	"/>
	<polygon class="st51" points="492,648.1 507,652.6 500.8,646.6 	"/>
	<polygon class="st33" points="501.9,658.5 507,652.6 492,648.1 	"/>
	<polygon class="st30" points="521.7,623.6 522.9,607 517.8,620.4 	"/>
	<polygon class="st145" points="474.5,673.1 501.9,658.5 492,648.1 	"/>
	<polygon class="st122" points="493.3,625.5 490.8,615.3 484.8,614.3 	"/>
	<polygon class="st24" points="522.9,607 493.3,625.5 517.8,620.4 	"/>
	<polygon class="st18" points="484.8,614.3 490.8,615.3 483.5,581.8 	"/>
	<polygon class="st30" points="483.5,581.8 490.8,615.3 492,587.5 	"/>
	<polygon class="st27" points="521.5,471.8 545.8,489.2 534,474 	"/>
	<polygon class="st7" points="517.8,620.4 493.3,625.5 485.5,639.8 	"/>
	<polygon class="st142" points="485.5,639.8 493.3,625.5 484.8,614.3 	"/>
	<polygon class="st99" points="372.9,71.5 333,76 350.4,130 	"/>
	<polygon class="st120" points="530.3,265 555.5,273 561.2,247.7 	"/>
	<polygon class="st36" points="530.3,227.8 530.3,265 561.2,247.7 	"/>
	<polygon class="st78" points="545.8,489.2 543.2,478.8 534,474 	"/>
	<polygon class="st123" points="353.8,682.7 328.9,707.3 368.8,696.1 	"/>
	<polygon class="st2" points="574.3,306.8 555.5,273 548.3,289.8 	"/>
	<polygon class="st99" points="530.3,227.8 508,191.5 487.9,156.5 481.3,245.5 	"/>
	<polygon class="st61" points="414.8,220.5 414.8,136.2 368.5,176.6 	"/>
	<polygon class="st36" points="458.3,127 414.8,136.2 414.8,220.5 	"/>
	<polygon class="st100" points="543.8,309.1 574.3,306.8 548.3,289.8 	"/>
	<polygon class="st61" points="481.3,245.5 487.9,156.5 455.5,220.5 	"/>
	<polygon class="st145" points="414.8,136.2 372.9,71.5 350.4,130 	"/>
	<polygon class="st36" points="487.9,156.5 458.3,127 414.8,220.5 	"/>
	<polygon class="st137" points="455.5,220.5 487.9,156.5 414.8,220.5 	"/>
	<polygon class="st95" points="530.3,265 530.3,227.8 485.5,277.4 	"/>
	<polygon class="st18" points="545.8,450.5 555.2,456.7 550.2,441.8 	"/>
	<polygon class="st78" points="555.2,456.7 568,432.7 550.2,441.8 	"/>
	<polygon class="st1" points="530.5,465.8 555.2,456.7 545.8,450.5 	"/>
	<polygon class="st23" points="568,432.7 563.3,411.3 550.2,441.8 	"/>
	<polygon class="st123" points="534,474 555.2,456.7 530.5,465.8 	"/>
	<polygon class="st192" points="543.2,478.8 555.2,456.7 534,474 	"/>
	<polygon class="st133" points="556,360 553.5,352.5 526.8,335.7 	"/>
	<polygon class="st34" points="526.8,335.7 555.3,331.3 536.7,322 	"/>
	<polygon class="st36" points="553.5,352.5 555.3,331.3 526.8,335.7 	"/>
	<polygon class="st89" points="555.3,331.3 576.3,318.2 536.7,322 	"/>
	<polygon class="st50" points="576.3,318.2 574.3,306.8 543.8,309.1 	"/>
	<polygon class="st59" points="513,339.2 533.8,347.9 556,360 526.8,335.7 	"/>
	<polygon class="st182" points="292.3,642.3 301.9,654.9 315,638.3 	"/>
	<polygon class="st76" points="556,360 569.8,359.7 553.5,352.5 	"/>
	<polygon class="st1" points="582.8,344.6 580,332.2 561.2,350 	"/>
	<polygon class="st142" points="569.8,359.7 582.8,344.6 561.2,350 	"/>
	<polygon class="st30" points="553.5,352.5 569.8,359.7 561.2,350 	"/>
	<polygon class="st33" points="588,278.8 595.5,246.5 555.5,273 	"/>
	<polygon class="st133" points="565.7,371.8 569.8,359.7 556,360 	"/>
	<polygon class="st200" points="573.3,367.7 569.8,359.7 565.7,371.8 	"/>
	<polygon class="st99" points="561.2,350 580,332.2 555.3,331.3 	"/>
	<polygon class="st191" points="603.5,285.3 588,278.8 587.8,298.3 	"/>
	<polygon class="st23" points="587.8,298.3 588,278.8 574.3,306.8 	"/>
	<polygon class="st59" points="585.2,388 573.3,367.7 568.7,390.2 	"/>
	<polygon class="st46" points="574.3,306.8 588,278.8 555.5,273 	"/>
	<polygon class="st74" points="580,332.2 603.5,285.3 587.8,298.3 	"/>
	<polygon class="st80" points="555.3,331.3 580,332.2 576.3,318.2 	"/>
	<polygon class="st88" points="576.3,318.2 580,332.2 587.8,298.3 	"/>
	<polygon class="st195" points="568.7,390.2 573.3,367.7 565.7,371.8 	"/>
	<polygon class="st79" points="559.7,489.2 572.3,484.5 574,475.5 	"/>
	<polygon class="st19" points="572.3,484.5 588.5,471 574,475.5 	"/>
	<polygon class="st36" points="588.5,471 575.5,444.3 574,475.5 	"/>
	<polygon class="st21" points="578.8,398.3 585.2,388 568.7,390.2 	"/>
	<polygon class="st81" points="545.8,489.2 559.7,489.2 543.2,478.8 	"/>
	<polygon class="st153" points="555.2,456.7 559.7,489.2 574,475.5 	"/>
	<polygon class="st39" points="555.2,502.8 559.7,489.2 545.8,489.2 	"/>
	<polygon class="st12" points="574,475.5 575.5,444.3 555.2,456.7 	"/>
	<polygon class="st18" points="585.4,413.8 578.8,398.3 564.9,398.3 	"/>
	<polygon class="st41" points="555.2,456.7 575.5,444.3 568,432.7 	"/>
	<polygon class="st45" points="564.9,398.3 578.8,398.3 568.7,390.2 	"/>
	<polygon class="st47" points="563.3,411.3 585.4,413.8 564.9,398.3 	"/>
	<polygon class="st123" points="575.5,444.3 595,430.5 568,432.7 	"/>
	<polygon class="st49" points="568,432.7 585.4,413.8 563.3,411.3 	"/>
	<polygon class="st32" points="595,430.5 585.4,413.8 568,432.7 	"/>
	<polygon class="st100" points="543.2,478.8 559.7,489.2 555.2,456.7 	"/>
	<polygon class="st50" points="306.8,64.8 295,59.7 293.5,84 	"/>
	<polygon class="st5" points="311.6,111 306.8,64.8 293.5,84 	"/>
	<polygon class="st72" points="295,59.7 260.3,84 271,90 	"/>
	<polygon class="st59" points="293.5,84 295,59.7 271,90 	"/>
	<polygon class="st2" points="333,76 306.8,64.8 311.6,111 	"/>
	<polygon class="st32" points="356.7,59.7 330,56 333,76 	"/>
	<polygon class="st131" points="330,56 306.8,64.8 333,76 	"/>
	<polygon class="st18" points="344.3,45.3 330,56 356.7,59.7 	"/>
	<polygon class="st200" points="233,116.8 216.5,140.7 228.5,159.5 	"/>
	<polygon class="st107" points="228.5,159.5 216.5,140.7 222.5,181.5 	"/>
	<polygon class="st201" points="260.3,84 249.2,111 271,90 	"/>
	<polygon class="st112" points="216.5,140.7 206.5,150.8 222.5,181.5 	"/>
	<polygon class="st59" points="271,90 249.2,111 269.8,110 	"/>
	<polygon class="st15" points="269.8,110 249.2,111 259.8,146.3 	"/>
	<polygon class="st107" points="249.2,111 233,116.8 228.5,159.5 	"/>
	<polygon class="st153" points="372.9,71.5 391.3,50.5 356.7,59.7 	"/>
	<polygon class="st137" points="508,191.5 530.3,227.8 569,150.8 487.9,156.5 	"/>
	<polygon class="st202" points="487.9,156.5 547.8,120 458.3,127 	"/>
	<polygon class="st202" points="569,150.8 547.8,120 487.9,156.5 	"/>
	<polygon class="st36" points="582.8,172.5 569,150.8 530.3,227.8 	"/>
	<polygon class="st60" points="595.5,246.5 595.5,213.5 561.2,247.7 	"/>
	<polygon class="st40" points="561.2,247.7 582.8,172.5 530.3,227.8 	"/>
	<polygon class="st35" points="595.5,213.5 582.8,172.5 561.2,247.7 	"/>
	<polygon class="st119" points="469.8,92.5 431,56 414.8,136.2 	"/>
	<polygon class="st34" points="431,56 391.3,50.5 372.9,71.5 	"/>
	<polygon class="st32" points="391.3,50.5 344.3,45.3 356.7,59.7 	"/>
	<polygon class="st40" points="555.5,273 595.5,246.5 561.2,247.7 	"/>
	<polygon class="st137" points="547.8,120 530.3,92.5 469.8,92.5 	"/>
	<polygon class="st134" points="458.3,127 547.8,120 469.8,92.5 	"/>
	<polygon class="st61" points="481.6,73 431,56 469.8,92.5 	"/>
	<polygon class="st65" points="530.3,92.5 481.6,73 469.8,92.5 	"/>
	<polygon class="st19" points="456.4,693.9 471.1,700.5 455,670.8 	"/>
	<polygon class="st99" points="422,738 429.9,734.6 424.8,718.8 	"/>
	<polygon class="st152" points="429.9,734.6 432.8,707.9 424.8,718.8 	"/>
	<polygon class="st40" points="507,652.6 517,656.1 521.7,623.6 	"/>
	<polygon class="st192" points="501.9,658.5 507.6,666.9 507,652.6 	"/>
	<polygon class="st153" points="507.6,666.9 517,656.1 507,652.6 	"/>
	<polygon class="st42" points="424.8,718.8 432.8,707.9 410.3,708.8 	"/>
	<polygon class="st60" points="535.3,607 534.8,588.6 521.7,623.6 	"/>
	<polygon class="st60" points="517,656.1 530.4,630 521.7,623.6 	"/>
	<polygon class="st100" points="530.4,630 535.3,607 521.7,623.6 	"/>
	<polygon class="st39" points="408.5,715.6 422,738 424.8,718.8 	"/>
	<polygon class="st102" points="443.1,699.5 449.8,706.7 456.4,693.9 	"/>
	<polygon class="st120" points="474.5,673.1 495,679.7 501.9,658.5 	"/>
	<polygon class="st100" points="479.8,692.2 495,679.7 474.5,673.1 	"/>
	<polygon class="st38" points="455,670.8 479.8,692.2 474.5,673.1 	"/>
	<polygon class="st153" points="471.1,700.5 479.8,692.2 455,670.8 	"/>
	<polygon class="st14" points="449.8,706.7 471.1,700.5 456.4,693.9 	"/>
	<polygon class="st39" points="495,679.7 507.6,666.9 501.9,658.5 	"/>
	<polygon class="st153" points="434.1,682.7 432.8,707.9 443.1,699.5 	"/>
	<polygon class="st79" points="410.3,708.8 408.5,715.6 424.8,718.8 	"/>
	<polygon class="st35" points="410.3,708.8 432.8,707.9 434.1,682.7 	"/>
	<polygon class="st79" points="432.8,707.9 449.8,706.7 443.1,699.5 	"/>
	<polygon class="st35" points="403.7,716.6 408.5,715.6 410.3,708.8 	"/>
	<polygon class="st38" points="545.8,524.5 553.4,520.5 535.8,509 	"/>
	<polygon class="st87" points="515.5,516.8 526.3,530.3 535.8,509 	"/>
	<polygon class="st1" points="553.4,520.5 555.2,502.8 535.8,509 	"/>
	<polygon class="st76" points="499.5,539 526.3,530.3 515.5,516.8 	"/>
	<polygon class="st145" points="368.8,696.1 379.1,728.5 400.6,696.9 	"/>
	<path class="st12" d="M528.3,496.8c0,0.9,26.8,6.1,26.8,6.1l-9.3-13.7C545.8,489.2,528.3,495.8,528.3,496.8z"/>
	<polygon class="st2" points="379.1,728.5 403.7,716.6 400.6,696.9 	"/>
	<path class="st44" d="M528.3,496.8l7.5,12.3l19.3-6.2C555.2,502.8,528.3,497.7,528.3,496.8z"/>
	<polygon class="st192" points="328.9,707.3 379.1,728.5 368.8,696.1 	"/>
	<polygon class="st18" points="521.7,623.6 534.8,588.6 522.9,607 	"/>
	<polygon class="st91" points="534.8,539 526.3,530.3 523.8,559.3 	"/>
	<polygon class="st48" points="530.4,581.6 539.4,566.9 534,553.9 	"/>
	<polygon class="st152" points="522.9,607 534.8,588.6 540.3,580.3 530.4,581.6 	"/>
	<polygon class="st29" points="534,553.9 539.4,566.9 542.6,547.1 534.8,539 	"/>
	<polygon class="st166" points="547.3,534.5 526.3,530.3 534.8,539 	"/>
	<polygon class="st30" points="400.6,696.9 403.7,716.6 410.3,708.8 	"/>
	<polygon class="st198" points="542.6,547.1 547.3,534.5 534.8,539 	"/>
	<polygon class="st8" points="262,271.3 230.5,311.5 278.5,303.3 	"/>
	<polygon class="st31" points="259.8,146.3 249.2,111 228.5,159.5 	"/>
	<polygon class="st143" points="233,234.7 212.7,262.3 236.8,245.5 	"/>
	<polygon class="st127" points="218.5,223 205.3,232.7 233,234.7 	"/>
	<polygon class="st203" points="222.5,181.5 205.3,232.7 218.5,223 	"/>
	<polygon class="st93" points="229,460.3 225.8,493.3 238.8,469.8 	"/>
	<polygon class="st185" points="202.8,478.3 220,516 210.5,462.5 	"/>
	<polygon class="st158" points="397.1,341 356.8,349.5 376.3,355.8 	"/>
	<polygon class="st8" points="344.5,333.5 349.9,340.5 380.5,333.5 	"/>
	<polygon class="st204" points="349.9,340.5 356.8,349.5 397.1,341 	"/>
	<polygon class="st150" points="380.5,333.5 349.9,340.5 397.1,341 	"/>
	<polygon class="st60" points="269.8,505.8 281.5,523 297,507.3 	"/>
	<polygon class="st153" points="274.3,482.8 269.8,505.8 297,507.3 	"/>
	<polygon class="st168" points="365.8,452.2 362.8,437.3 356.5,480.3 	"/>
	<polygon class="st47" points="409.8,591.5 412.3,578.5 383.3,590.3 	"/>
	<polygon class="st12" points="409.8,591.5 437,584.5 412.3,578.5 	"/>
	<polygon class="st35" points="412.3,578.5 423.3,565.8 402.5,565.8 	"/>
	<polygon class="st205" points="423.3,565.8 424.8,544.9 402.5,565.8 	"/>
	<polygon class="st60" points="412.3,578.5 437,584.5 423.3,565.8 	"/>
	<polygon class="st5" points="532.8,296.3 527.2,291.4 518.2,312.8 	"/>
	<polygon class="st202" points="482.2,322.3 491.8,329.7 518.2,312.8 	"/>
	<polygon class="st192" points="536.7,322 576.3,318.2 543.8,309.1 	"/>
	<polygon class="st191" points="439.8,362.8 446.5,351.6 425.7,351.8 	"/>
	<polygon class="st120" points="608.5,428.2 606.7,409.3 595,430.5 	"/>
	<polygon class="st119" points="594.3,441.8 613.5,439.8 608.5,428.2 	"/>
	<polygon class="st46" points="590.5,491.6 614.8,496.8 607.7,476.8 	"/>
	<polygon class="st195" points="507.5,473 521.5,471.8 503.8,463.3 	"/>
	<polygon class="st49" points="521.5,471.8 534,474 510.5,462.7 	"/>
	<polygon class="st3" points="503.8,463.3 521.5,471.8 510.5,462.7 	"/>
	<polygon class="st13" points="526.3,530.3 545.8,524.5 535.8,509 	"/>
	<polygon class="st41" points="535.8,509 528.3,496.8 515.5,516.8 	"/>
	<polygon class="st37" points="484,538.5 480.7,512.3 475.7,535.8 	"/>
	<polygon class="st40" points="368.5,176.6 414.8,136.2 350.4,130 	"/>
	<polygon class="st40" points="530.3,92.5 530.3,66.8 481.6,73 	"/>
	<polygon class="st126" points="580,332.2 612.5,290.7 603.5,285.3 	"/>
	<polygon class="st88" points="301.9,654.9 315.9,704 318.3,696.1 	"/>
	<polygon class="st157" points="319.3,647.3 301.9,654.9 326,659.5 	"/>
	<polygon class="st43" points="408.5,684.4 434.1,682.7 420.4,675.6 	"/>
	<polygon class="st40" points="410.3,708.8 434.1,682.7 408.5,684.4 	"/>
	<polygon class="st89" points="540.3,580.3 539.4,566.9 530.4,581.6 	"/>
	<polygon class="st142" points="467.4,732 473.7,745 489.8,714.8 	"/>
	<polygon class="st197" points="295,494.8 297,507.3 314.8,510.3 	"/>
	<polygon class="st62" points="297,507.3 312.5,520.7 314.8,510.3 	"/>
	<polygon class="st27" points="480.7,512.3 499.5,539 497.7,506.8 	"/>
	<polygon class="st82" points="497.7,506.8 499.5,539 515.5,516.8 	"/>
	<polygon class="st61" points="482.2,441.7 481.9,441.1 458.7,455 482.2,458.2 	"/>
	<polygon class="st120" points="485.5,277.4 522.5,284.5 548.3,289.8 530.3,265 	"/>
	<polygon class="st137" points="530.3,265 548.3,289.8 555.5,273 	"/>
	<polygon class="st39" points="588,278.8 631.5,245.5 595.5,246.5 	"/>
	<polygon class="st122" points="595.5,246.5 631.5,245.5 641,202.3 	"/>
</g>
</svg>
