<?xml version="1.0" encoding="utf-8"?>
<!-- Generator: Adobe Illustrator 19.0.1, SVG Export Plug-In . SVG Version: 6.00 Build 0)  -->
<svg version="1.1" id="Слой_1" xmlns="http://www.w3.org/2000/svg" xmlns:xlink="http://www.w3.org/1999/xlink" x="0px" y="0px"
	 viewBox="0 0 482 482" style="enable-background:new 0 0 482 482;" xml:space="preserve">
<style type="text/css">
	.st0{fill:#F7DDC4;}
	.st1{fill:#FFFFFF;}
</style>
<g>
	<path class="st0" d="M241,482c-64.4,0-124.9-25.1-170.4-70.6C25.1,365.9,0,305.4,0,241c0-64.4,25.1-124.9,70.6-170.4
		C116.1,25.1,176.6,0,241,0c64.4,0,124.9,25.1,170.4,70.6c45.5,45.5,70.6,106,70.6,170.4c0,64.4-25.1,124.9-70.6,170.4
		C365.9,456.9,305.4,482,241,482z M241,10C113.6,10,10,113.6,10,241s103.6,231,231,231s231-103.6,231-231S368.4,10,241,10z"/>
</g>
<g>
	<g>
		<g>
			<rect x="127.8" y="244.5" class="st1" width="226.5" height="2.2"/>
		</g>
	</g>
	<g>
		<path class="st1" d="M140.2,225.7c4,2.5,9.9,4.5,16,4.5c9.1,0,14.5-4.8,14.5-11.8c0-6.5-3.7-10.2-13-13.8
			c-11.3-4-18.3-9.9-18.3-19.6c0-10.8,8.9-18.8,22.4-18.8c7.1,0,12.2,1.6,15.3,3.4l-2.5,7.3c-2.3-1.2-6.9-3.3-13.1-3.3
			c-9.4,0-13,5.6-13,10.4c0,6.5,4.2,9.7,13.8,13.4c11.7,4.5,17.7,10.2,17.7,20.3c0,10.7-7.9,19.9-24.2,19.9c-6.7,0-14-2-17.7-4.4
			L140.2,225.7z"/>
		<path class="st1" d="M203.3,214.8l-7.2,21.8h-9.2l23.5-69.2h10.8l23.6,69.2h-9.6l-7.4-21.8H203.3z M226,207.9l-6.8-19.9
			c-1.5-4.5-2.6-8.6-3.6-12.6h-0.2c-1,4.1-2.2,8.3-3.5,12.5l-6.8,20H226z"/>
		<path class="st1" d="M253.7,225.7c4,2.5,9.9,4.5,16,4.5c9.1,0,14.5-4.8,14.5-11.8c0-6.5-3.7-10.2-13-13.8
			c-11.3-4-18.3-9.9-18.3-19.6c0-10.8,8.9-18.8,22.4-18.8c7.1,0,12.2,1.6,15.3,3.4l-2.5,7.3c-2.3-1.2-6.9-3.3-13.1-3.3
			c-9.4,0-13,5.6-13,10.4c0,6.5,4.2,9.7,13.8,13.4c11.7,4.5,17.7,10.2,17.7,20.3c0,10.7-7.9,19.9-24.2,19.9c-6.7,0-14-2-17.7-4.4
			L253.7,225.7z"/>
		<path class="st1" d="M304.3,225.7c4,2.5,9.9,4.5,16,4.5c9.1,0,14.5-4.8,14.5-11.8c0-6.5-3.7-10.2-13-13.8
			c-11.3-4-18.3-9.9-18.3-19.6c0-10.8,8.9-18.8,22.4-18.8c7.1,0,12.2,1.6,15.3,3.4l-2.5,7.3c-2.3-1.2-6.9-3.3-13.1-3.3
			c-9.4,0-13,5.6-13,10.4c0,6.5,4.2,9.7,13.8,13.4c11.7,4.5,17.7,10.2,17.7,20.3c0,10.7-7.9,19.9-24.2,19.9c-6.7,0-14-2-17.7-4.4
			L304.3,225.7z"/>
	</g>
	<g>
		<path class="st1" d="M141.8,311.8c4,2.5,9.9,4.5,16,4.5c9.1,0,14.5-4.8,14.5-11.8c0-6.5-3.7-10.2-13-13.8
			c-11.3-4-18.3-9.9-18.3-19.6c0-10.8,8.9-18.8,22.4-18.8c7.1,0,12.2,1.6,15.3,3.4l-2.5,7.3c-2.3-1.2-6.9-3.3-13.1-3.3
			c-9.4,0-13,5.6-13,10.4c0,6.5,4.2,9.7,13.8,13.4c11.7,4.5,17.7,10.2,17.7,20.3c0,10.7-7.9,19.9-24.2,19.9c-6.7,0-14-2-17.7-4.4
			L141.8,311.8z"/>
		<path class="st1" d="M242.1,320.5c-3.3,1.6-9.9,3.3-18.3,3.3c-19.5,0-34.2-12.3-34.2-35c0-21.7,14.7-36.4,36.2-36.4
			c8.6,0,14.1,1.8,16.4,3.1l-2.2,7.3c-3.4-1.6-8.2-2.9-14-2.9c-16.2,0-27,10.4-27,28.6c0,16.9,9.8,27.8,26.6,27.8
			c5.4,0,11-1.1,14.6-2.9L242.1,320.5z"/>
		<path class="st1" d="M252,311.8c4,2.5,9.9,4.5,16,4.5c9.1,0,14.5-4.8,14.5-11.8c0-6.5-3.7-10.2-13-13.8
			c-11.3-4-18.3-9.9-18.3-19.6c0-10.8,8.9-18.8,22.4-18.8c7.1,0,12.2,1.6,15.3,3.4l-2.5,7.3c-2.3-1.2-6.9-3.3-13.1-3.3
			c-9.4,0-13,5.6-13,10.4c0,6.5,4.2,9.7,13.8,13.4c11.7,4.5,17.7,10.2,17.7,20.3c0,10.7-7.9,19.9-24.2,19.9c-6.7,0-14-2-17.7-4.4
			L252,311.8z"/>
		<path class="st1" d="M302.7,311.8c4,2.5,9.9,4.5,16,4.5c9.1,0,14.5-4.8,14.5-11.8c0-6.5-3.7-10.2-13-13.8
			c-11.3-4-18.3-9.9-18.3-19.6c0-10.8,8.9-18.8,22.4-18.8c7.1,0,12.2,1.6,15.3,3.4l-2.5,7.3c-2.3-1.2-6.9-3.3-13.1-3.3
			c-9.4,0-13,5.6-13,10.4c0,6.5,4.2,9.7,13.8,13.4c11.7,4.5,17.7,10.2,17.7,20.3c0,10.7-7.9,19.9-24.2,19.9c-6.7,0-14-2-17.7-4.4
			L302.7,311.8z"/>
	</g>
</g>
</svg>
