<?xml version="1.0" encoding="utf-8"?>
<!-- Generator: Adobe Illustrator 19.0.1, SVG Export Plug-In . SVG Version: 6.00 Build 0)  -->
<svg version="1.1" id="Слой_1" xmlns="http://www.w3.org/2000/svg" xmlns:xlink="http://www.w3.org/1999/xlink" x="0px" y="0px"
	 viewBox="-64 156 482 482" style="enable-background:new -64 156 482 482;" xml:space="preserve">
<style type="text/css">
	.st0{fill:#FFFFFF;}
	.st1{fill:#F7DDC4;}
</style>
<g>
	<g>
		<g>
			<rect x="63.8" y="400.5" class="st0" width="226.5" height="2.2"/>
		</g>
	</g>
	<g>
		<path class="st0" d="M76.2,381.7c4,2.5,9.9,4.5,16,4.5c9.1,0,14.5-4.8,14.5-11.8c0-6.5-3.7-10.2-13-13.8
			c-11.3-4-18.3-9.9-18.3-19.6c0-10.8,8.9-18.8,22.4-18.8c7.1,0,12.2,1.6,15.3,3.4l-2.5,7.3c-2.3-1.2-6.9-3.3-13.1-3.3
			c-9.4,0-13,5.6-13,10.4c0,6.5,4.2,9.7,13.8,13.4c11.7,4.5,17.7,10.2,17.7,20.3c0,10.7-7.9,19.9-24.2,19.9c-6.7,0-14-2-17.7-4.4
			L76.2,381.7z"/>
		<path class="st0" d="M139.3,370.8l-7.2,21.8h-9.2l23.5-69.2h10.8l23.6,69.2h-9.6l-7.4-21.8H139.3z M162,363.9l-6.8-19.9
			c-1.5-4.5-2.6-8.6-3.6-12.6h-0.2c-1,4.1-2.2,8.3-3.5,12.5l-6.8,20H162z"/>
		<path class="st0" d="M189.7,381.7c4,2.5,9.9,4.5,16,4.5c9.1,0,14.5-4.8,14.5-11.8c0-6.5-3.7-10.2-13-13.8
			c-11.3-4-18.3-9.9-18.3-19.6c0-10.8,8.9-18.8,22.4-18.8c7.1,0,12.2,1.6,15.3,3.4l-2.5,7.3c-2.3-1.2-6.9-3.3-13.1-3.3
			c-9.4,0-13,5.6-13,10.4c0,6.5,4.2,9.7,13.8,13.4c11.7,4.5,17.7,10.2,17.7,20.3c0,10.7-7.9,19.9-24.2,19.9c-6.7,0-14-2-17.7-4.4
			L189.7,381.7z"/>
		<path class="st0" d="M240.3,381.7c4,2.5,9.9,4.5,16,4.5c9.1,0,14.5-4.8,14.5-11.8c0-6.5-3.7-10.2-13-13.8
			c-11.3-4-18.3-9.9-18.3-19.6c0-10.8,8.9-18.8,22.4-18.8c7.1,0,12.2,1.6,15.3,3.4l-2.5,7.3c-2.3-1.2-6.9-3.3-13.1-3.3
			c-9.4,0-13,5.6-13,10.4c0,6.5,4.2,9.7,13.8,13.4c11.7,4.5,17.7,10.2,17.7,20.3c0,10.7-7.9,19.9-24.2,19.9c-6.7,0-14-2-17.7-4.4
			L240.3,381.7z"/>
	</g>
	<g>
		<path class="st0" d="M77.8,467.8c4,2.5,9.9,4.5,16,4.5c9.1,0,14.5-4.8,14.5-11.8c0-6.5-3.7-10.2-13-13.8
			c-11.3-4-18.3-9.9-18.3-19.6c0-10.8,8.9-18.8,22.4-18.8c7.1,0,12.2,1.6,15.3,3.4l-2.5,7.3c-2.3-1.2-6.9-3.3-13.1-3.3
			c-9.4,0-13,5.6-13,10.4c0,6.5,4.2,9.7,13.8,13.4c11.7,4.5,17.7,10.2,17.7,20.3c0,10.7-7.9,19.9-24.2,19.9c-6.7,0-14-2-17.7-4.4
			L77.8,467.8z"/>
		<path class="st0" d="M178.1,476.5c-3.3,1.6-9.9,3.3-18.3,3.3c-19.5,0-34.2-12.3-34.2-35c0-21.7,14.7-36.4,36.2-36.4
			c8.6,0,14.1,1.8,16.4,3.1l-2.2,7.3c-3.4-1.6-8.2-2.9-14-2.9c-16.2,0-27,10.4-27,28.6c0,16.9,9.8,27.8,26.6,27.8
			c5.4,0,11-1.1,14.6-2.9L178.1,476.5z"/>
		<path class="st0" d="M188,467.8c4,2.5,9.9,4.5,16,4.5c9.1,0,14.5-4.8,14.5-11.8c0-6.5-3.7-10.2-13-13.8
			c-11.3-4-18.3-9.9-18.3-19.6c0-10.8,8.9-18.8,22.4-18.8c7.1,0,12.2,1.6,15.3,3.4l-2.5,7.3c-2.3-1.2-6.9-3.3-13.1-3.3
			c-9.4,0-13,5.6-13,10.4c0,6.5,4.2,9.7,13.8,13.4c11.7,4.5,17.7,10.2,17.7,20.3c0,10.7-7.9,19.9-24.2,19.9c-6.7,0-14-2-17.7-4.4
			L188,467.8z"/>
		<path class="st0" d="M238.7,467.8c4,2.5,9.9,4.5,16,4.5c9.1,0,14.5-4.8,14.5-11.8c0-6.5-3.7-10.2-13-13.8
			c-11.3-4-18.3-9.9-18.3-19.6c0-10.8,8.9-18.8,22.4-18.8c7.1,0,12.2,1.6,15.3,3.4l-2.5,7.3c-2.3-1.2-6.9-3.3-13.1-3.3
			c-9.4,0-13,5.6-13,10.4c0,6.5,4.2,9.7,13.8,13.4c11.7,4.5,17.7,10.2,17.7,20.3c0,10.7-7.9,19.9-24.2,19.9c-6.7,0-14-2-17.7-4.4
			L238.7,467.8z"/>
	</g>
</g>
<path class="st1" d="M177,162c31.7,0,62.5,6.2,91.5,18.5c28,11.8,53.1,28.8,74.7,50.4s38.5,46.7,50.4,74.7
	c12.3,29,18.5,59.7,18.5,91.5s-6.2,62.5-18.5,91.5c-11.8,28-28.8,53.1-50.4,74.7c-21.6,21.6-46.7,38.5-74.7,50.4
	c-29,12.3-59.7,18.5-91.5,18.5s-62.5-6.2-91.5-18.5c-28-11.8-53.1-28.8-74.7-50.4c-21.6-21.6-38.5-46.7-50.4-74.7
	C-51.8,459.5-58,428.7-58,397s6.2-62.5,18.5-91.5c11.8-28,28.8-53.1,50.4-74.7s46.7-38.5,74.7-50.4C114.5,168.2,145.3,162,177,162
	 M177,156C43.9,156-64,263.9-64,397S43.9,638,177,638s241-107.9,241-241S310.1,156,177,156L177,156z"/>
</svg>
