<?xml version="1.0" encoding="utf-8"?>
<!-- Generator: Adobe Illustrator 19.0.1, SVG Export Plug-In . SVG Version: 6.00 Build 0)  -->
<svg version="1.1" id="Слой_1" xmlns="http://www.w3.org/2000/svg" xmlns:xlink="http://www.w3.org/1999/xlink" x="0px" y="0px"
	 viewBox="0 0 214 214" style="enable-background:new 0 0 214 214;" xml:space="preserve">
<style type="text/css">
	.st0{fill:#FFFFFF;}
</style>
<path class="st0" d="M107,0C47.9,0,0,47.9,0,107s47.9,107,107,107s107-47.9,107-107S166.1,0,107,0z M104,134.9c-6,0-12.5-1.7-15.8-4
	l2-6.7c3.6,2.2,8.8,4,14.4,4c8.2,0,13-4.3,13-10.6c0-5.8-3.3-9.1-11.7-12.3c-10.1-3.6-16.4-8.8-16.4-17.6c0-9.7,8-16.8,20.1-16.8
	c6.3,0,10.9,1.5,13.7,3l-2.2,6.5c-2-1.1-6.2-2.9-11.8-2.9c-8.5,0-11.7,5.1-11.7,9.3c0,5.8,3.8,8.6,12.3,12
	c10.5,4,15.8,9.1,15.8,18.2C125.7,126.6,118.6,134.9,104,134.9z"/>
</svg>
