<?xml version="1.0" encoding="utf-8"?>
<!-- Generator: Adobe Illustrator 19.0.1, SVG Export Plug-In . SVG Version: 6.00 Build 0)  -->
<svg version="1.1" id="Слой_1" xmlns="http://www.w3.org/2000/svg" xmlns:xlink="http://www.w3.org/1999/xlink" x="0px" y="0px"
	 viewBox="0 0 214 214" style="enable-background:new 0 0 214 214;" xml:space="preserve">
<style type="text/css">
	.st0{fill:#ffffff;}
</style>
<path class="st0" d="M107,0C47.9,0,0,47.9,0,107s47.9,107,107,107s107-47.9,107-107S166.1,0,107,0z M85.4,134h-8.8L56.3,72H65
	l9.7,30.5c2.7,8.4,5,15.9,6.6,23.2h0.2c1.7-7.2,4.3-15,7.1-23.1L99,72h8.6L85.4,134z M148.6,134l-20.4-30.5l-5.9,6.8V134h-8V72h8
	v29.9h0.3c1.7-2.4,3.3-4.6,4.9-6.6l19-23.3h9.9l-22.4,26.3l24.2,35.7H148.6z"/>
</svg>
